/* XPM */
static char *ab1629270fcb44a187ed3a5c65d66264C8H1tWGIILTN3EfU[] = {
/* columns rows colors chars-per-pixel */
"64 64 178 2 ",
"   c #000000",
".  c #0C0A06",
"X  c #110F0B",
"o  c #120F01",
"O  c #1E1901",
"+  c #17140F",
"@  c #101010",
"#  c #1D1913",
"$  c #181818",
"%  c #231D00",
"&  c #201C0C",
"*  c #221D16",
"=  c #292201",
"-  c #2F2801",
";  c #28230E",
":  c #262000",
">  c #322A01",
",  c #2D271D",
"<  c #2A2519",
"1  c #362F1A",
"2  c #2F2F2F",
"3  c #372F23",
"4  c #393125",
"5  c #373737",
"6  c #473C02",
"7  c #483C01",
"8  c #433B1B",
"9  c #443A2C",
"0  c #403721",
"q  c #4E4102",
"w  c #514300",
"e  c #5E4E03",
"r  c #594B19",
"t  c #5F5314",
"y  c #605000",
"u  c #6A5903",
"i  c #65550D",
"p  c #675610",
"a  c #786505",
"s  c #54492B",
"d  c #5F5524",
"f  c #4F4433",
"g  c #47433D",
"h  c #514534",
"j  c #5B4E3A",
"k  c #5C4F31",
"l  c #65573C",
"z  c #625729",
"x  c #5E5240",
"c  c gray37",
"v  c #6D5E46",
"b  c #655844",
"n  c #705F48",
"m  c #74644B",
"M  c #78674D",
"N  c #7A694E",
"B  c #706045",
"V  c #6A6256",
"C  c #7E6C51",
"Z  c gray43",
"A  c #767675",
"S  c #7D7C7B",
"D  c #826D03",
"F  c #8D7703",
"G  c #857003",
"H  c #967E04",
"J  c #806E4E",
"K  c #806E53",
"L  c #897659",
"P  c #8E7A5B",
"I  c #847153",
"U  c #917D5E",
"Y  c #957F60",
"T  c #9A8000",
"R  c #A18602",
"E  c #A58A00",
"W  c #A98D01",
"Q  c #A68D0C",
"!  c #A98F0D",
"~  c #AD9000",
"^  c #AB910C",
"/  c #B29500",
"(  c #B79903",
")  c #BC9D03",
"_  c #AF9515",
"`  c #BFA001",
"'  c #BFA314",
"]  c #BFA524",
"[  c #C09F00",
"{  c #C3A202",
"}  c #C9A701",
"|  c #CDAB01",
" . c #D2AF00",
".. c #D6B200",
"X. c #D9B504",
"o. c #DEB900",
"O. c #C7A810",
"+. c #CFB015",
"@. c #D8B718",
"#. c #E2BC00",
"$. c #D2B627",
"%. c #D1B736",
"&. c #D8BD37",
"*. c #CAAE27",
"=. c #E7C100",
"-. c #ECC500",
";. c #F3CB00",
":. c #F8CF00",
">. c #F4CE0B",
",. c #FFD500",
"<. c #FFD70C",
"1. c #FAD518",
"2. c #DAC03F",
"3. c #E4C323",
"4. c #E7C62A",
"5. c #FEDA23",
"6. c #FEDB2E",
"7. c #E6C832",
"8. c #EBCC36",
"9. c #E7CB3F",
"0. c #EED03C",
"q. c #FDDC35",
"w. c #FDDD3F",
"e. c #F3D334",
"r. c #AB9943",
"t. c #BDAA48",
"y. c #B8A447",
"u. c #968161",
"i. c #9C8664",
"p. c #9E8866",
"a. c #A18A67",
"s. c #A58D6A",
"d. c #AB926E",
"f. c #AD9470",
"g. c #B09772",
"h. c #B69C75",
"j. c #B99E77",
"k. c #BA9F78",
"l. c #BAA077",
"z. c #BBA078",
"x. c #C5AF42",
"c. c #CDB84E",
"v. c #CAB54D",
"b. c #D3BC47",
"n. c #DEC443",
"m. c #DDC654",
"M. c #E2C848",
"N. c #F4D74B",
"B. c #FADC4A",
"V. c #E4CD59",
"C. c #F8DB54",
"Z. c #F6DB5A",
"A. c #F9DE5C",
"S. c #F3D857",
"D. c #FDE04E",
"F. c #FCE054",
"G. c #FCE15B",
"H. c #ECD564",
"J. c #FCE260",
"K. c #FCE574",
"L. c #FCE578",
"P. c #939083",
"I. c #9D9D9D",
"U. c #B8B294",
"Y. c #C6BF9B",
"T. c #FCEB99",
"R. c #E5DBAC",
"E. c #FBEEAD",
"W. c #FBEFB2",
"Q. c #F7EBB0",
"!. c #FBF0B7",
"~. c #CBCBCB",
"^. c LightGray",
"/. c #FBF1C1",
"(. c #FBF5D9",
"). c #FAF8EC",
"_. c gray98",
"`. c #F8F7F1",
/* pixels */
"g.h.j.h.h.h.j.j.j.h.h.j.h.h.j.h.h.j.j.j.j.h.j.j.h.h.j.j.h.j.h.j.h.j.j.j.z.h.h.h.j.h.j.j.h.h.h.h.j.j.j.j.h.j.g.h.j.h.h.j.h.j.h.h.",
"h.h.j.j.j.z.z.h.h.j.h.h.j.h.h.j.h.j.h.h.j.j.h.j.j.h.h.h.j.j.j.h.j.z.h.h.j.j.h.h.j.j.h.j.j.h.h.h.h.h.h.h.h.j.h.h.j.h.g.h.l.h.h.h.",
"j.h.j.j.j.j.j.j.j.j.h.h.h.h.j.h.h.h.h.h.h.h.h.h.j.h.j.h.h.g.j.h.j.j.h.h.h.h.j.h.j.h.h.l.h.h.h.j.j.h.j.h.j.h.j.h.h.h.j.j.h.h.h.h.",
"j.j.j.h.z.h.h.h.j.j.j.j.h.h.h.h.h.k.j.h.j.j.h.h.h.j.j.h.h.h.z.h.h.j.h.j.h.j.z.j.h.h.j.h.j.h.h.h.j.h.z.h.h.l.j.h.j.h.h.j.h.j.h.h.",
"z.j.h.h.j.j.h.z.z.z.h.j.h.j.h.j.h.j.j.l.j.j.j.h.h.j.j.h.h.h.h.h.j.j.h.h.j.j.j.j.h.h.j.h.h.j.h.h.j.h.h.h.h.j.h.h.h.h.h.j.h.j.g.h.",
"z.j.h.j.j.h.h.h.h.j.j.h.j.j.j.j.j.z.j.h.j.j.a.* . . . . . . . . . . . . . . . . 9 j.j.j.h.h.j.h.z.h.j.j.h.j.h.j.j.h.h.h.h.j.z.j.",
"h.j.h.j.k.h.j.j.h.h.h.h.h.j.h.h.j.h.h.h.h.z.a.+                                 4 h.h.h.j.j.h.h.j.h.h.j.j.h.h.z.j.h.j.j.j.z.j.j.",
"z.h.j.j.h.j.j.j.h.j.j.j.j.h.j.z.j.j.N m m m B z d t y y y y e w w w w w w w 7 6 r m m m m U h.j.h.j.j.h.h.h.z.z.h.h.j.h.j.j.j.j.",
"h.h.h.j.j.h.h.h.h.j.j.h.h.j.h.h.h.h.+       & m.J.q.,.,.,.,.;...............{ ) D         f k.h.h.j.h.j.h.j.j.z.j.j.k.j.h.h.j.h.",
"j.j.h.h.j.h.h.h.j.z.h.h.j.h.h.d.u.p.1 ; ; ; 8 M.F.6.,.,.,.,.;.o.o.o.o.o.....{ { F O O O O s p.p.g.j.j.j.h.h.j.h.j.h.h.z.h.j.h.h.",
"j.h.h.j.h.j.j.h.j.h.h.j.j.h.h.m * * y.c.c.c.b.1.<.<.,.,.,.,.,.:.,.:.:.-..... . .{ T T T T i * , p.h.h.h.h.j.j.h.j.h.j.z.h.j.j.j.",
"h.h.z.j.j.h.j.j.h.h.h.h.j.h.h.b     m.J.J.J.F.<.,.,.,.,.,.,.,.,.,.,.,.-.........| ) ) ) ) u   . u.j.j.j.j.j.h.j.j.h.j.j.h.h.h.h.",
"h.j.z.h.j.z.h.h.h.j.h.j.j.j j V S S H.J.J.J.F.<.,.-.| | | | | | | | | { ) )  ... .| } { ) H e e k j N h.h.h.h.h.h.h.j.h.h.h.h.j.",
"h.h.j.h.h.h.h.h.j.h.h.h.h.    Z _._.K.J.J.J.F.<.,...T T T T T T T T T T T T | ........{ ) ) ) / %   4 h.j.h.h.h.j.h.h.z.h.j.h.j.",
"h.h.h.h.l.h.h.h.h.z.d.s.s.$ $ A ).).K.J.A.S.N.>.;. .T T T T T T T T T T T T |  . . .| { { ) ) / > o 0 s.s.g.h.h.j.j.j.h.h.h.h.h.",
"h.j.z.z.j.j.j.j.j.h.v # # ^.^.R.L.L.J.J.n.! ! W W ) | | | | | | | | | | | | W E E E W {  .| ) ) E R a # # U h.j.j.l.j.j.h.j.j.j.",
"h.j.h.j.j.j.h.g.h.h.b     _._.W.J.J.J.J.2.T T T T / ........................R T T T R { ..| ) ) ) ) D     L h.j.j.h.j.k.h.z.h.h.",
"k.h.j.h.j.h.h.h.K m V c c /./.T.J.J.n.&.*./ / / / O.3.3.3.3.3.3.3.3.3.@...../ / / / / ) { { { { ) ) H 6 6 l m P j.j.j.h.h.h.j.h.",
"j.h.h.h.h.j.h.d.*   A _._.J.J.J.J.J.Q T ~ ........4.J.J.J.J.J.J.J.J.J.8.............| W T / ....{ ) ) ) ) -   h h.j.j.j.j.h.z.z.",
"j.j.h.j.j.h.h.d.*   A _._.J.J.A.Z.Z.! T / X.X.X.X.4.Z.Z.Z.Z.Z.Z.Z.Z.Z.7. . ...o.o...| W T /  . .{ ` ) ) ) -   h j.h.j.j.h.j.h.j.",
"h.j.h.j.h.h.j.f.*   A _._.J.J.2._ _ { } @.N.N.N.N.&._ _ _ _ _ _ _ _ _ ^ E E -.;.-.....| } ) E W }  .| ) ) -   f h.j.j.h.j.h.h.h.",
"j.z.j.j.h.h.h.d.*   A _._.J.J.%.T T | ..3.J.J.J.J.%.T T T T T T T T T T T T ;.,.;.........) T T | ..| ) ) -   h h.j.h.j.h.h.k.h.",
"h.z.h.j.h.i.j x A S U.E.E.J.J.%.T T | ..3.J.G.q.q.+.T T T T W | | | | ( T T { | ..-.-.o...) H T | ..| ) ) a e r j j h.j.h.g.h.h.",
"h.j.z.j.h.M   @ ~._.W.J.J.J.J.%.T T | ..3.J.F.<.,...T T T T ) ,.,.,.,...T T T T ) ,.,.#...) T T | ..| ) ) ) ) u     j.h.j.j.j.j.",
"h.j.h.h.h.M   @ ~._.W.J.J.J.J.%.T T | ..3.J.F.<.,...T T T T ) ,.,.,.,...T T T T ) ,.,.#...) T T | ..| ) ) ) ) u     j.j.h.h.h.h.",
"h.h.z.h.h.M   @ ~._.W.J.J.R R (  . .N.A.w.,.,.,.,...T T T T ) ,.,.,.,...T T T T ) ,.,.#..... .| E T ~ ....{ ) u     h.k.j.j.j.j.",
"j.j.j.h.j.M   @ ~._.W.J.J.T T / ....C.J.w.,.,.,.,...T T T T ) ,.,.,.,...T T T T ) ,.,.#....... .E T ~ ....{ ) u     h.h.j.j.h.j.",
"l.h.j.h.z.M   @ ~._.W.J.J.T T / ....C.J.w.,.,.,.,...T T T T ) ,.,.,.,...T T T T ) ,.,.-.#.o... .E T ~ ....{ ) u     j.h.h.h.j.j.",
"j.j.h.j.h.M   @ ~._.W.J.J.T T / ....C.J.w.,.,.,.,...T T T H ) ,.,.,.,...T T T T ) ,.,.,.,.-... .E T ~ ....{ ) u     h.h.k.j.j.h.",
"h.h.h.z.j.M   @ ~._.W.J.J.T T / ....C.J.w.,.,.,.,...T T T T ) ,.,.,.,...T T T T ) ,.,.,.,.-... .E T ~ ....{ ) u     j.h.j.z.j.j.",
"j.j.h.h.j.m   @ ~._.W.J.J.T T / ....C.J.w.,.,.,.,...T T T T T ~ ~ ~ ~ E T T #.-.;.,.,.,.,.-... .E T ~ ....{ ) u     j.j.h.j.j.j.",
"j.j.j.j.j.M   @ ~._.W.J.J.T T / ....C.J.w.,.,.,.,...T T T T T T T T T T T T ;.,.,.,.,.,.,.-... .E T ~ ....{ ) u     h.h.z.h.z.j.",
"h.h.h.h.l.M   @ ~._.W.J.J.T T / ....C.J.w.,.,.,.,...T T T T W | | | | | | | ,.,.,.,.,.,.,.-... .E T ~ ....{ ) u     h.j.j.j.k.h.",
"h.h.j.h.h.N   @ ~._.W.J.J.T T / ....C.J.w.,.,.,.,...T T T T ) ,.,.,.,.,.,.,.,.,.,.,.,.,.,.-... .E T ~ ....{ ) u     h.h.h.j.j.h.",
"j.j.h.h.j.M   @ ~._.W.J.J.T T / ....C.J.w.,.,.,.,...T T T T ) ,.,.,.,.,.,.,.,.,.,.,.,.,.,.-... .E T ~ ....{ ) u     h.h.h.h.j.j.",
"j.j.j.h.h.M   @ ~._.W.J.J.T T / ....C.J.w.,.,.,.,...T T T T ) ,.,.,.,.,.,.,.,.,.,.,.,.#.o.o... .E T ~ ....{ ) u     k.z.h.h.h.h.",
"j.h.z.h.h.M   @ ~._.W.J.J.T T / ....C.J.w.,.,.,.,...T T T T ) ,.,.,.,.,.,.,.,.,.,.,.,.#....... .E T ~ ....{ ) u     j.j.g.h.h.j.",
"h.h.j.z.h.M   @ ~._.W.J.J.] ] ' { { 8.0.e.5.5.,.,...T T T T ) ,.,.,.,.,.,.,.,.,.,.,.,.#...| { ) / / ) | | { ) u     h.h.l.k.j.h.",
"h.j.h.h.j.M   @ ~._.W.J.J.J.J.%.T T | ..3.J.F.<.,...T T T T ) ,.,.,.,.,.,.,.,.,.,.,.,.#...) T T | ..| ) ) ) ) u     j.h.h.j.h.j.",
"j.j.h.h.h.N . @ ~.`.Q.J.J.J.J.%.T T | ..3.J.F.<.,...T T T T ) ,.,.,.,.,.,.,.,.,.,.,.,.#...) T T | ..| ) ) ( ( u . . j.h.h.j.h.l.",
"z.h.h.j.h.d.U L g 5 P.(.(.J.J.%.T T | ..3.J.G.D.B.$.T T T T ) ,.,.,.,.,.,.,.,.,.;.o.o.o...) T T | ..| ) ) q = s P U j.h.h.h.h.j.",
"h.j.k.j.k.l.h.d.*   A _._.J.J.%.T T | ..3.J.J.J.J.%.T T T T ) ,.,.,.,.,.,.,.,.,.;.........) T T | ..| ) ) -   h h.h.j.j.j.j.h.h.",
"h.h.h.k.j.h.j.f.*   A _._.J.J.M.] ] ` [ +.0.0.0.0.&.] ] ] ] $.5.5.5.5.1.;.;.;.;.-.....{ [ ) / / { | { ) ) -   f g.h.h.h.h.h.j.h.",
"h.j.h.j.h.h.h.d.*   A _._.J.J.J.J.J.Q T ~ ........4.J.J.J.J.J.J.J.J.J.8.............| W T / ....{ ) ) ) ) -   h h.h.j.j.h.j.h.h.",
"h.h.j.j.h.j.z.d.*   A _._.J.J.J.J.J.Q T ~ ........4.J.J.J.J.J.J.J.J.J.8.............| W T / ....{ ) ) ) ) -   h k.h.j.j.h.j.j.h.",
"j.h.h.h.h.j.j.j.f.d.b @ @ `.`.W.J.J.Z.Z.&.T T T T ( X.X.X.X.X.X.X.X.X.X.....E T T T E {  .| ` ) ) ) G . . I d.g.h.h.j.j.z.h.h.j.",
"j.l.j.j.j.j.j.h.j.j.l     _._.!.J.J.J.J.2.T T T T / ........................R T T T R { ..| ) ) ) ) D     L h.j.j.j.l.j.j.h.j.z.",
"j.j.h.h.j.h.h.h.j.j.K 9 9 I.I.Y.T.T.J.J.9.{ { { { { ` ` ` ` ` ` ` ` ` ` ` ` / / / / / | ..| ) ( D a p 9 9 i.h.h.h.h.h.j.j.j.j.j.",
"j.j.h.j.j.j.j.j.h.h.z.j.h.    Z _._.K.J.w.,.,.,.,...T T T T T T T T T T T T | ............| ) / %   4 h.j.z.j.j.h.j.h.j.h.j.j.j.",
"j.h.j.h.h.h.j.h.z.h.h.h.h.    Z _._.K.J.w.,.,.,.,...T T T T T T T T T T T T | ............| ) / %   4 h.j.h.j.h.j.j.j.h.j.h.h.j.",
"h.h.j.j.l.h.h.j.h.j.h.h.h.u.U v 2 2 V.J.G.D.B.<.,.;.-.-.-.-.-.-.-.-.-.o.| | .... .{ { { { a % = J Y p.h.j.h.h.k.h.j.g.h.j.j.h.h.",
"h.h.h.h.h.h.j.h.z.j.j.h.l.h.j.b     m.J.J.J.F.<.,.,.,.,.,.,.,.,.,.,.,.-.........| ) ) ) ) u   . Y j.j.j.h.h.h.j.h.z.h.h.z.h.h.j.",
"h.j.h.j.h.h.j.h.j.g.j.j.h.z.j.N , , r.t.t.t.x.1.1.<.,.,.,.,.,.;.;.;.;.=..... . .) F F F F i , 3 p.h.h.z.h.h.h.h.h.h.h.j.j.h.h.j.",
"h.h.h.h.h.j.j.z.h.j.j.z.h.j.h.h.h.h.+       & m.J.q.,.,.,.,.;...............{ ) D         f h.j.j.h.j.j.h.h.h.j.j.h.j.h.k.h.j.j.",
"j.j.h.h.h.g.h.j.h.j.h.h.j.j.j.h.j.h.< X X X < v.V.7.=.=.=.=.o.{ { { { { { { ~ W a X X X X j j.h.j.h.k.h.h.h.h.h.h.j.h.h.l.h.j.h.",
"j.j.h.j.j.z.h.h.h.h.j.h.j.h.k.j.j.g.p.i.i.i.L 1 ; ; = = = = : % % % % % % % O O 8 i.p.p.u.d.j.z.j.j.j.h.j.z.h.h.h.h.h.h.j.j.j.h.",
"h.j.h.h.j.h.j.h.h.j.z.h.j.j.h.k.j.j.j.j.h.j.a.+                                 4 h.h.j.j.h.j.l.j.h.h.h.j.j.h.h.j.j.h.h.h.h.h.j.",
"h.j.h.j.h.h.j.j.h.j.j.h.j.h.j.z.j.j.j.h.j.h.g.C v v v v v v v v v v n v v v v v L h.h.h.j.j.j.j.j.h.h.k.z.j.h.h.h.h.j.h.h.h.j.j.",
"h.j.h.h.h.h.h.j.j.h.j.h.h.j.h.h.l.j.h.h.h.j.j.h.h.h.j.h.h.h.j.h.h.h.z.h.j.h.h.h.h.h.h.h.j.z.h.j.j.h.h.h.j.j.j.j.h.j.j.j.h.h.j.z.",
"j.j.h.g.j.h.j.h.z.z.h.j.j.j.h.h.j.j.h.h.h.j.h.h.j.h.h.j.h.h.h.j.h.h.z.h.z.h.j.h.j.h.j.j.j.z.j.h.z.h.h.j.h.z.j.h.h.j.h.j.k.j.j.j.",
"j.z.h.h.j.j.j.h.j.h.h.j.h.h.h.g.j.h.j.j.j.j.j.j.h.h.h.h.j.j.h.j.h.h.j.h.h.h.j.j.j.j.h.j.h.h.h.h.h.h.j.j.j.h.h.j.h.h.h.j.z.j.z.j.",
"j.z.h.j.h.j.h.j.h.h.h.h.h.j.h.j.h.h.h.h.j.j.h.h.j.j.z.h.h.h.h.z.j.h.j.j.j.h.h.h.h.j.h.j.h.h.j.j.j.j.h.h.h.h.j.j.h.h.j.h.h.h.j.h.",
"h.z.j.j.h.j.j.j.h.h.z.j.h.j.j.j.h.h.h.h.l.h.h.h.j.h.h.h.j.j.j.h.h.h.h.h.h.h.h.j.h.j.j.h.j.h.h.h.j.h.h.h.h.j.j.h.j.j.j.j.j.h.h.h.",
"j.h.h.j.j.h.j.j.h.h.k.k.j.h.j.j.j.j.h.h.j.h.z.h.j.j.j.j.h.h.h.j.k.j.j.j.j.j.j.j.h.j.j.h.j.h.j.h.h.j.h.g.h.h.h.j.j.j.j.h.z.j.h.j."
};
