/* XPM */
static char *_00cf2e01eee4e909444b9d96dc2689ap51sX7WKVti1hVsi[] = {
/* columns rows colors chars-per-pixel */
"64 64 181 2 ",
"   c #0B0F09",
".  c #0D110B",
"X  c #11140F",
"o  c #141613",
"O  c #191614",
"+  c #161915",
"@  c #191A17",
"#  c #1B1D1A",
"$  c #221E1C",
"%  c #1E221D",
"&  c #23221E",
"*  c #28221F",
"=  c #1A1D21",
"-  c #1E2226",
";  c #1D242B",
":  c #1F2932",
">  c #222421",
",  c #2B2522",
"<  c #252A24",
"1  c #292C27",
"2  c #212B2E",
"3  c #2B2E29",
"4  c #22262A",
"5  c #312A26",
"6  c #342E2A",
"7  c #2C322B",
"8  c #34332E",
"9  c #39322E",
"0  c #30382F",
"q  c #212C36",
"w  c #202D39",
"e  c #22313E",
"r  c #333533",
"t  c #3D3532",
"y  c #343C33",
"u  c #383C37",
"i  c #3A3C3A",
"p  c #413936",
"a  c #374135",
"s  c #394237",
"d  c #3B4439",
"f  c #3D4A3B",
"g  c #404D3E",
"h  c #40443F",
"j  c #243645",
"k  c #273A4B",
"l  c #283B4A",
"z  c #273E53",
"x  c #283E51",
"c  c #2A4156",
"v  c #2B445B",
"b  c #354B5F",
"n  c #2C4760",
"m  c #2E4B65",
"M  c #2F4E69",
"N  c #344E65",
"B  c #304F6A",
"V  c #3C5263",
"C  c #31526D",
"Z  c #3B5469",
"A  c #3F596D",
"S  c #335573",
"D  c #335877",
"F  c #385974",
"G  c #345B7B",
"H  c #395D7A",
"J  c #434443",
"K  c #464945",
"L  c #484D47",
"P  c #4B4C4B",
"I  c #465443",
"U  c #495846",
"Y  c #4E514D",
"T  c #4C5C4A",
"R  c #50514F",
"E  c #535453",
"W  c #565A55",
"Q  c #5B5B5A",
"!  c #51624E",
"~  c #5C605B",
"^  c #455663",
"/  c #495863",
"(  c #505D65",
")  c #5B6467",
"_  c #546067",
"`  c #4C677A",
"'  c #466175",
"]  c #576974",
"[  c #596972",
"{  c #636363",
"}  c #646866",
"|  c #646B6A",
" . c #6B6C6B",
".. c #606768",
"X. c #6F706F",
"o. c #72726A",
"O. c #79766B",
"+. c #7B786D",
"@. c #737373",
"#. c #7B7B7B",
"$. c #777972",
"%. c #6E7879",
"&. c #847E6D",
"*. c #8B826F",
"=. c #92866F",
"-. c #89887B",
";. c #968971",
":. c #9C8C71",
">. c #948975",
",. c #A28F73",
"<. c #A59273",
"1. c #AA9574",
"2. c #AB9878",
"3. c #B69C75",
"4. c #B99E77",
"5. c #B49E7A",
"6. c #BA9F78",
"7. c #BAA077",
"8. c #BBA078",
"9. c #355F81",
"0. c #376285",
"q. c #3B6484",
"w. c #376488",
"e. c #38668B",
"r. c #39688E",
"t. c #3B6C93",
"y. c #3B6F98",
"u. c #3E7097",
"i. c #3C729C",
"p. c #3D76A2",
"a. c #3E79A6",
"s. c #3E7BA9",
"d. c #446781",
"f. c #416F92",
"g. c #41759C",
"h. c #457699",
"j. c #4378A1",
"k. c #447BA4",
"l. c #407DAB",
"z. c #427DAA",
"x. c #497FA7",
"c. c #76919D",
"v. c #4481AF",
"b. c #4B84AD",
"n. c #4A81A7",
"m. c #4684B2",
"M. c #4A86B3",
"N. c #4C89B5",
"B. c #4D8DBA",
"V. c #518DB6",
"C. c #518FBA",
"Z. c #5191BE",
"A. c #5191BE",
"S. c #5E92B4",
"D. c #6397B9",
"F. c #5495C3",
"G. c #5698C6",
"H. c #579AC8",
"J. c #5A9DCB",
"K. c #5EA0CD",
"L. c #61A2CE",
"P. c #858585",
"I. c #8C8C8C",
"U. c #888887",
"Y. c #8F908F",
"T. c #92968A",
"R. c #97988A",
"E. c #859798",
"W. c #949494",
"Q. c #999E92",
"!. c #9B9B9B",
"~. c #979C92",
"^. c #A3A3A3",
"/. c #ADADAD",
"(. c #B5B5B5",
"). c #BDBDBD",
"_. c #C4C4C4",
"`. c #CCCCCC",
"'. c gainsboro",
"]. c #D5D5D5",
"[. c gray90",
/* pixels */
"3.3.4.3.3.3.4.4.4.3.3.4.3.3.4.3.3.4.4.4.4.3.4.4.3.3.3.1.<.;.Z V V Z | 1.1.1.3.3.4.3.4.4.3.3.3.3.4.4.4.4.3.4.3.3.4.3.3.4.3.4.3.3.",
"3.3.4.4.4.8.8.3.3.4.3.3.4.3.3.4.3.4.3.3.4.4.3.4.3.*. .b F q.p.D y.p.t.H N / &.<.4.4.3.4.4.3.3.3.3.3.3.3.3.4.3.3.4.3.3.3.7.3.3.3.",
"4.3.4.4.4.4.4.4.4.4.3.3.3.3.4.3.3.3.3.3.3.3.3.*.o.0.9.9.i.s.s.D k.l.s.s.w.9.9.[ O.1.3.7.3.3.3.4.4.3.4.3.4.3.4.3.3.3.4.4.3.3.3.3.",
"4.4.4.3.8.3.3.3.4.4.4.4.3.3.3.3.3.6.4.3.3.3.*.V 0.s.s.s.l.B.A.q.N.A.A.m.s.s.s.y.C ) 3.3.4.3.3.3.4.3.8.3.3.7.4.3.4.3.3.4.3.4.3.3.",
"8.4.3.3.4.4.3.8.8.8.3.4.3.4.3.4.3.4.4.3.<.^ N 0.a.v.G.G.A.g.k.q.e.t.t.N.G.G.B.s.i.B V O.1.4.3.3.4.3.3.3.3.4.3.3.3.3.3.4.3.4.3.3.",
"8.4.3.4.4.3.3.3.3.4.4.3.4.4.4.4.4.8.<.( S 9.t.t.N.b.r.r.r.0.0.D m 9.0.e.r.r.g.N.v.D n.D m =.3.3.8.3.4.4.3.4.3.4.4.3.3.3.3.4.8.4.",
"3.4.3.4.6.3.4.4.3.3.3.3.3.4.3.3.4.o.] 0.i.l.b.f.t.r.r.0.9.D D G M S D G 0.r.r.r.f.h.B.s.w.` o.;.4.3.3.4.4.3.3.8.4.3.4.4.4.8.4.4.",
"8.3.4.4.3.4.4.4.3.4.4.4.4.3.4.8.+.m y.s.s.B.k.r.S G G D D D D D m S D D D G G D G j.b.m.s.p.D ^ <.4.4.3.3.3.8.8.3.3.4.3.4.4.4.4.",
"3.3.3.4.4.3.3.3.3.4.4.3.3.3.1.| m p.s.B.A.t.e.G D m S D S C v c c v B S S D C C D e.r.b.F.l.a.9.V ,.3.4.3.4.4.8.4.4.6.4.3.3.4.3.",
"4.4.3.3.4.3.3.3.4.8.3.3.4.3.&.C y.s.M.j.t.0.D S C B m c j j q # # - j j j M m C C D G r.t.N.v.a.G _ 4.4.3.3.4.3.4.3.3.8.3.4.3.3.",
"4.3.3.4.3.4.4.3.4.3.3.4.4.1.] y.s.B.j.0.9.D S k w w w - # # $ , , $ # # # q w w w m D G 9.u.M.m.a.d.*.3.3.4.4.3.4.3.4.8.3.4.4.4.",
"3.3.8.4.4.3.4.4.3.3.3.3.1.) 9.s.N.j.r.9.D C x > , $ , , , 5 5 6 6 5 5 , , * , , $ q m S D r.t.M.l.y.^ *.3.4.3.4.4.3.4.4.3.3.3.3.",
"3.4.8.3.4.8.3.3.3.4.3.4.} C b.N.k.r.D D v ; > , 6 6 t , 6 t t t t t t 9 , 6 9 6 5 * - k C D 0.t.N.l.q.V ;.3.3.3.3.3.4.3.3.3.3.4.",
"3.3.4.3.3.3.3.3.4.3.3.:.' S H g.0.0.S v 4 , 5 9 9 9 9 , 5 & @ & @ # # , $ 9 9 9 9 6 , , j S G 9.e.0.M S @.3.3.3.4.3.3.8.3.4.3.4.",
"3.3.3.3.7.3.3.3.3.8.;.` i.a.q.D r.D c - , 9 , , , , 1 > > y a ! 1 y y 7 1 1 1 , , , 6 9 $ j C 0.e.S j.a.t.o.3.3.4.4.4.3.3.3.3.3.",
"3.4.8.8.4.4.4.4.4.3.&.9.s.B.t.D D C - , 6 t @ O & 1 L y 0 % > 7 # # % f d d h 7 @ O , 9 5 # k D S w.M.m.a.^ 3.4.4.7.4.4.3.4.4.4.",
"3.4.3.4.4.4.3.3.3.<.H i.k.C.0.D m O , 6 9 O @ 7 h P.W 7 o O O # + o o o . T  .~ 7 # O , 9 5 # e S D k.N.s.i.o.4.4.3.4.6.3.8.3.3.",
"6.3.4.3.4.3.3.4.4.<.H y.N.t.0.S c @ 6 9 $ # u Y @.@.u O % % % & + % % @ o > Q #.W L < @ 6 9 , q B D e.M.m.i.o.3.4.4.4.3.3.3.4.3.",
"4.3.3.3.3.4.3.Q.%...S w.N.t.G B ; $ 6 * % 0 E P.@.P o % % % % < # % < < # o 7  .#.#.y 1 O 9 , @ c D 0.b.m.i./ } E.5.4.4.4.3.8.8.",
"4.4.3.4.4.3.3.E.b.t.S D b.t.D B ; * , $ 3 s Q  .i > # < < < % < # % > > % # # 1 Q  .K 7 O 5 , # c D 0.N.v.D G k.S.5.4.4.3.4.3.4.",
"3.4.3.4.3.3.4.$.r.N.r.C b.t.G B ; t 6 > y s P r O @ + % > > % 1 # % & % % # + O % K K r # , t , c D e.M.l.C M.k.' 3.4.3.4.3.3.3.",
"4.8.4.4.3.3.3.o.w.t.g.C b.t.D B ; 6 5 > y 3 + O 3 i O % < 1 1 3 # < 1 > % # > i @ O 1 y 7 & t & c D 9.M.w.G k.t.A 3.3.4.3.3.6.3.",
"3.8.3.4.3.3.3.o.D D D M q.D B m ; 6 , 1 y # % O } Q > % < < % < # % & < < @ J #.> O 1 y y $ 9 & c M S e.C D D G A 1.3.4.3.3.3.3.",
"3.4.8.4.3.3.3.<.^ 9.w.y.y.y.y.D ; 6 6 1 y & # r  .@.+ + + 1 1 3 # < 1 # o + J #.P # > f s > t & c C D 0.r.y.y.y.-.6.4.3.4.4.4.4.",
"3.4.3.3.3.3.3.4./ 0.0.9.D D D B ; 5 , 1 I > # r { # K K . X + < @ % X . o X.1 R P # % f s # 6 $ c C S D D e.e.D ;.3.4.4.3.3.3.3.",
"3.3.8.3.3.3.3.3.o._ m m m m m m ; * , 1 U > + o r % W.#.7 # . . o . o # E W.Q 3 @ O # y s # , # c m m m m m ^ ) <.4.3.6.4.4.4.4.",
"4.4.4.3.4.3.3.8.3.<.Z D D S m B ; * , 1 f & < r o i #./.I. .J W 1 3 Q #.!.W.E @ O J + g d # , # c C M D D D o.6.3.3.3.3.4.4.3.4.",
"7.3.4.3.8.3.4.4.4.1.C e.D S m B ; 5 , 1 y % J Y.3 3 @.W._._._.'.P U._.`.^.@.J X I.I.+ g d # 6 $ c C M 9.e.0.o.4.3.3.4.3.3.3.4.4.",
"4.4.3.4.3.4.4.3.3.<.F t.r.t.M C ; , * 1 s % 1 #.W.r @.W.^.`.].[.E /.`./.I.@. .U.(.E + g d # , $ c S D r.y.N.o.3.4.3.3.3.6.4.4.3.",
"3.3.3.8.4.3.4.3.3.<.H i.y.V.S D ; t 6 1 I < # J U.W.I.U.I.(.`.'.Y W.).W.U.U.W.!.} # # s s > p , v G D r.p.V.o.4.4.7.4.3.4.8.4.4.",
"4.4.3.3.4.3.3.3.3.<.H s.i.C.B C ; , 6 1 U < % O Q W.U.U.U.I./.`.P P.I.U.U.U.U.#.> # > 7 y , 9 # v D D y.p.V.o.4.4.4.4.4.3.4.4.4.",
"4.4.4.4.4.3.3.4.4.<.H a.a.C.m B ; 6 6 1 T } % o #  .I.!.I.U.U.(.K #.U.U.W.W.U.J O % J E 7 3 t $ c C 9.a.a.i.o.7.4.3.3.3.8.3.8.4.",
"3.3.3.3.7.4.4.7.3.<.S i.a.p.m B ; 6 6 3 ! @.% o + @.!.!.!.W.I.(.K #.I.!.^.!.U.u . % K W 7 , t $ c C 9.a.a.i.o.3.4.3.3.4.4.4.6.3.",
"3.3.4.3.3.7.4.3.4.<.S i.y.i.m B ; , , 1 T ~ E   K { U.!.(.)._.).K U.).`.).!.@.Q @ <  .K 7 # 5 # c C 9.i.p.i.o.4.3.4.3.3.3.4.4.3.",
"4.4.3.3.4.4.4.3.3.1.S i.y.i.B B ; 6 , 1 U i J   P Q Q { { @.(._.K !./.@.} { Q { # @ E s 7 $ 9 & c C 9.i.p.i.o.4.3.3.3.3.3.3.4.4.",
"4.4.4.3.3.4.3.3.3.<.S i.p.r.m B ; 6 6 1 I > J r  .P.3 # X o u I.i Q & X X 3 Q #.P % d 3 y , t & c C D i.a.i.o.3.3.4.6.8.3.3.3.3.",
"4.3.8.3.3.4.8.3.4.<.S i.A.t.S D ; , $ 1 I # > i  .!.#.% . . 8 U.i K o .   E !.P.Q @ > f d @ , # v G D i.s.i.o.3.4.8.4.4.3.3.3.4.",
"3.3.4.8.3.4.3.4.3.<.S i.A.t.S D ; t 6 1 y @ & i  .I.!. .P E @.!.d  .} P Q (.(.#.Q @ > f d > p , v G D i.s.i.o.4.3.3.3.3.7.6.4.3.",
"3.4.3.3.4.3.3.4.3.<.S i.A.t.S D ; 6 6 1 f # 1 1 E @.U.U.U.#.P._.K P.@.U.W.!.U. .u > > f d , t & v G D i.s.i.o.7.3.4.4.3.3.4.3.4.",
"4.4.3.3.3.3.3.3.4.<.S i.l.e.M C ; 6 , 1 I # 7 @ J Q  . .} @.^.I.r P.U.}  . .} E @ 1 > d d $ 6 & c S D i.a.i.o.3.3.4.4.3.4.4.3.7.",
"8.3.3.4.3.3.4.3.4.<.S i.w.D m B ; 6 6 1 I # 7 % o # E E  .#.@.K > i I. .W Q i o o 1 - 3 y > t & c C C G i.i.o.3.3.6.4.3.3.3.3.4.",
"3.4.6.4.6.7.3.4.3.<.F i.0.G C C ; 6 6 < f # 3 < 1 + + # Q #.#.P < K I.@.% 3 o < < < % 1 y , t & c D S G t.t.o.3.3.3.4.4.4.4.3.3.",
"3.3.3.6.4.3.4.4.4.} S 0.D S m M ; 6 , > 7 @ 1 > 1 <   . Q @.#.#.r { #.@.> . @ 7 < < % 1 y $ 9 & c C M D G 0.^ =.3.3.3.3.3.3.4.3.",
"3.4.3.4.3.3.3.3.4.b m M m m m S : 6 , > 0 @ 7 1 3 3 % J  .@.@.I.i } @.o. .+ < 7 7 7 - 1 y # 6 & m C m m m M n ^ :.3.4.4.3.4.3.3.",
"3.3.4.4.3.4.8.3.4.Z l.v.v.l.t.v.j 5 , > y + > 1 1 3 > P r U.{ I.i { @.i { # 1 1 1 1 # f d # 6 $ i.v.v.v.v.v.v.G ;.3.4.4.3.4.4.3.",
"4.3.3.3.3.4.4.6.3.Z n.N.B.M.M.M.k * , > I # % < < < < X o Q  .U.i {  .<   % 1 < < < % y s # , @ f.x.b.b.b.b.n.D ;.3.4.4.8.3.3.4.",
"4.7.4.4.4.4.4.*.c.B S D D S S S : * $ > a + & < 1 7 7 < #  .I.U.i  .U.1 % 7 7 7 < < % 1 y # * # v M S S S S C m ;.4.7.4.4.3.4.8.",
"4.4.3.3.4.3.3.>.D.i.i.t.t.i.i.i.j 5 3 < y + % % & > 1 < < #.K U.i E Q i < < < > % % # 1 y $ 9 $ w.i.i.i.i.i.i.n.T.2.3.4.4.4.4.4.",
"4.4.3.4.4.4.T.k.N.A.A.A.F.F.F.F.l 6 6 1 I # % % % % % % 3 { + I < # i i % % % # % % # 7 a , t $ n.A.F.F.F.F.F.A.z.k.3.4.3.4.4.4.",
"4.3.4.3.3.3.T.m.S e.t.p.a.i.i.i.j 6 6 1 I # % < 7 % < < % + % T 1 7 o % < > < 7 # # # f d , t $ G t.p.p.i.i.y.D i.N.4.3.4.3.3.4.",
"3.3.4.4.7.3.~.B.S r.t.y.y.r.e.G q 6 6 1 I @ < g a % < < % # % T 1 7 + > > > 1 f f + O f d , t & S 0.t.t.r.r.r.C i.J.3.3.4.4.3.3.",
"3.3.3.3.3.3.Q.B.S 0.e.e.e.D D D : , , > y > I s < % % % > # % T 1 7 + > % % % 7 f I y f s $ 5 # m D D 0.e.e.e.C i.J.3.3.8.3.3.4.",
"3.4.3.4.3.3.Q.A.G C C C C C C C : * , > y T y 1 # > > > f 1 1 T 1 7 < f < > > % y y y y 7 # , # m C C C C C C C k.J.3.4.4.3.3.4.",
"3.3.3.3.3.4.Q.J.B.M.M.M.M.M.M.N.k * , > 0 y y # o > > > % I I T 1 a T < o > > @ < y y y 7 # , @ j.M.M.M.M.M.M.M.G.J.4.3.6.3.4.4.",
"4.4.3.3.3.3.-.g.m.m.m.m.m.m.v.k.j * $ > 7 7 s y d f f f f 0 7 U < 7 y f f d y f g y 0 7 7 @ * @ r.k.m.m.m.m.k.k.z.q.3.3.7.3.4.3.",
"4.4.3.4.4.8.*.D p.s.s.s.a.y.t.r.e $ # > 1 1 7 7 7 0 0 0 7 3 1 g < < 3 7 0 0 7 0 0 7 3 1 1 @ $ @ G r.t.i.a.a.p.y.r.m 3.3.4.4.4.3.",
"3.4.3.3.4.3.*.D r.p.p.p.y.r.9.9.e - - - - - - ; ; ; ; ; ; ; ; ; - ; ; ; ; 2 2 ; ; ; - ; ; - - = D G e.t.i.t.p.y.w.m 3.3.3.3.3.4.",
"3.4.3.4.3.3.*.D r.0.0.0.0.0.D D z m B S B m m m m m m C M m m m m m m m m m m m m m m m m m m z C D G 0.0.0.0.e.w.m 4.3.3.3.4.4.",
"3.4.3.3.3.3.&.m S m m m m m m m m D r.i.r.0.0.C C D 0.y.e.0.0.0.0.0.0.0.0.0.0.D m D 0.0.0.9.D M m m m m m m m C C v 4.4.3.3.4.8.",
"4.4.3.3.4.3.*.m D D w.e.e.e.e.e.e.t.a.s.a.p.p.0.D t.a.l.l.l.l.a.p.z.l.l.l.k.i.r.D e.y.p.p.t.r.e.D D 0.0.0.0.0.0.9.n 3.4.6.4.4.4.",
"4.8.3.3.4.4.*.C w.g.v.m.m.v.a.l.m.m.m.m.m.m.s.e.e.a.m.H.H.H.H.B.m.G.H.H.H.F.m.i.G r.p.m.m.v.m.k.g.y.y.y.y.y.y.t.w.m 3.4.7.4.8.4.",
"4.8.3.4.3.4.&.D y.H.J.J.J.L.B.F.L.J.J.J.J.H.m.e.i.l.B.J.J.J.J.J.J.J.J.L.L.L.L.A.e.i.F.J.J.K.K.J.L.A.A.B.N.N.m.i.t.m 4.3.3.3.4.3.",
"3.8.4.4.3.4.*.G a.H.J.J.J.K.K.J.K.J.J.J.J.J.A.y.i.s.m.m.m.N.J.J.J.J.J.K.L.L.K.J.i.a.m.m.m.J.L.L.K.L.L.J.J.J.G.F.N.m 4.4.4.3.3.3.",
"4.3.3.4.4.3.-.r.t.u.u.u.u.u.u.u.u.u.u.u.u.u.t.t.t.t.t.t.t.t.u.u.u.u.u.u.u.u.u.u.t.t.t.t.t.u.i.i.u.u.u.u.u.u.u.u.t.e.4.3.8.4.3.4."
};
