/* XPM */
static char *_46360260a6e4a4da39505150f8b1d24lAVmFz04qrkySA43[] = {
/* columns rows colors chars-per-pixel */
"64 64 160 2 ",
"   c #0E120C",
".  c #12130F",
"X  c #151210",
"o  c #191614",
"O  c #161815",
"+  c #1B1A17",
"@  c #1D1C1A",
"#  c #221E1C",
"$  c #1E211D",
"%  c #24211F",
"&  c #1C1E21",
"*  c #1F2124",
"=  c #1F262E",
"-  c #1F2A33",
";  c #252523",
":  c #2A2522",
">  c #262B25",
",  c #2C2A26",
"<  c #20262C",
"1  c #2C2C2B",
"2  c #312A27",
"3  c #332D29",
"4  c #2D332C",
"5  c #34312C",
"6  c #39312E",
"7  c #30382F",
"8  c #212B34",
"9  c #212E38",
"0  c #23313E",
"q  c #333433",
"w  c #3D3532",
"e  c #333931",
"r  c #3E3A35",
"t  c #3D3E3D",
"y  c #403B36",
"u  c #3E413D",
"i  c #3F4B3D",
"p  c #40423F",
"a  c #253646",
"s  c #273A4C",
"d  c #2A3E4D",
"f  c #293E52",
"g  c #2A4155",
"h  c #2B455B",
"j  c #2D4760",
"k  c #2E4B64",
"l  c #2F4E69",
"z  c #334C62",
"x  c #394E61",
"c  c #304F6A",
"v  c #3B5164",
"b  c #31516D",
"n  c #3A546A",
"m  c #325573",
"M  c #335876",
"N  c #345B7B",
"B  c #3A5C79",
"V  c #3B617F",
"C  c #424342",
"Z  c #4D4D4D",
"A  c #535353",
"S  c #5A5A5A",
"D  c #4F5E69",
"F  c #455664",
"G  c #505D66",
"H  c #505F68",
"J  c #4F6069",
"K  c #5D6566",
"L  c #50606A",
"P  c #5E6668",
"I  c #506471",
"U  c #576973",
"Y  c #4A6679",
"T  c #606767",
"R  c #646967",
"E  c #606668",
"W  c #656B6A",
"Q  c #6B6E69",
"!  c #6B706D",
"~  c #75746B",
"^  c #7A776C",
"/  c #7D796C",
"(  c #626D70",
")  c #817B6D",
"_  c #817D70",
"`  c #8C836F",
"'  c #91856F",
"]  c #8E8470",
"[  c #948770",
"{  c #978A71",
"}  c #9C8C72",
"|  c #A59273",
" . c #AB9674",
".. c #AE9875",
"X. c #A6987B",
"o. c #AF9D7C",
"O. c #A4977B",
"+. c #B69C75",
"@. c #B99E77",
"#. c #B69E78",
"$. c #BA9F78",
"%. c #BAA077",
"&. c #BBA078",
"*. c #365F81",
"=. c #366184",
"-. c #3A6485",
";. c #37658A",
":. c #38668B",
">. c #39688E",
",. c #3B6C93",
"<. c #3B6F98",
"1. c #3E7097",
"2. c #3C729B",
"3. c #3D76A2",
"4. c #3E79A6",
"5. c #3E7AA8",
"6. c #406D8F",
"7. c #4C6F89",
"8. c #4D7089",
"9. c #5B7686",
"0. c #406F91",
"q. c #427195",
"w. c #42759C",
"e. c #44799F",
"r. c #6D7D81",
"t. c #4177A0",
"y. c #437BA6",
"u. c #487DA4",
"i. c #477FA9",
"p. c #427EAB",
"a. c #487FA9",
"s. c #74888F",
"d. c #4380AE",
"f. c #4A82AC",
"g. c #4582B0",
"h. c #4684B2",
"j. c #4987B5",
"k. c #4986B4",
"l. c #4A88B6",
"z. c #4D89B5",
"x. c #4C89B5",
"c. c #4D8CBA",
"v. c #518DB8",
"b. c #548DB5",
"n. c #5090BE",
"m. c #5191BE",
"M. c #7598AA",
"N. c #5596C3",
"B. c #5697C5",
"V. c #5394C2",
"C. c #5799C7",
"Z. c #5C9BC5",
"A. c #5A9DCA",
"S. c #5FA1CD",
"D. c #62A4CF",
"F. c #65A7D1",
"G. c #80959B",
"H. c #919A94",
"J. c #A99B80",
"K. c #A09C8A",
/* pixels */
"+.+.@.+.+.+.@.@.@.+.+.@.+.+.@.+.+.@.@.@.@.+.@.@.+.+. . .| D v v n n |  . .+.+.+.@.+.@.@.+.+.+.+.@.@.@.@.+.@.+.+.@.+.+.@.+.@.+.+.",
"+.+.@.@.@.&.&.+.+.@.+.+.@.+.+.@.+.@.+.+.@.@.+.@.} ` x n B 2.2.M 3.3.B n z ~ ` +.@.@.+.@.@.+.+.+.+.+.+.+.+.@.+.+.@.+.+.+.%.+.+.+.",
"@.+.@.@.@.@.@.@.@.@.+.+.+.+.@.+.+.+.+.+.+.+.| ~ Y *.*.>.5.5.3.=.g.5.5.<.*.*.V ~ } +.+.%.+.+.+.@.@.+.@.+.@.+.@.+.+.+.@.@.+.+.+.+.",
"@.@.@.+.&.+.+.+.@.@.@.@.+.+.+.+.+.$.@.+.+. .K m 2.5.5.5.j.n.z.-.N.n.c.p.5.5.4.M F [ +.+.@.+.+.+.@.+.&.+.+.%.@.+.@.+.+.@.+.@.+.+.",
"&.@.+.+.@.@.+.&.&.&.+.@.+.@.+.@.+.@.+...W v b 3.5.n.B.B.i.2.v.m <.<.w.N.B.N.p.4.M v G  .+.@.+.+.@.+.+.+.+.@.+.+.+.+.+.@.+.@.+.+.",
"&.@.+.@.@.+.+.+.+.@.@.+.@.@.@.@.@.#./ k M 2.N l.z.<.>.>.;.=.=.l m =.=.>.>.,.x.z.-.f.M b T  .@.+.&.+.@.@.+.@.+.@.@.+.+.+.+.@.&.@.",
"+.@.+.@.$.+.@.@.+.+.+.+.+.@.+.+.] ! -.>.5.j.e.0.>.>.>.=.N m M m c m M =.;.>.>.,.q.m.5.<.=.( / +.@.+.+.@.@.+.+.&.@.+.@.@.@.&.@.@.",
"&.+.@.@.+.@.@.@.+.@.@.@.@.+.@.} v =.3.5.l.f.w.M N N N m m m m b c m m m N N N m <.u.c.5.5.>.x ) +.@.@.+.+.+.&.&.+.+.@.+.@.@.@.@.",
"+.+.+.@.@.+.+.+.+.@.@.+.+.+.' z :.5.g.N.y.>.-.m c b m m m k g g g h m m m m k m =.>.2.N.l.5.2.k ^ +.+.@.+.@.@.&.@.@.$.@.+.+.@.+.",
"@.@.+.+.@.+.+.+.@.&.+.+.@.+.z =.4.g.f.,.;.N m b b k k s a a & @ @ 0 a a h k b b m M ;.,.i.k.5.,.c { @.@.+.+.@.+.@.+.+.&.+.@.+.+.",
"@.+.+.@.+.@.@.+.@.+.+.@.+.) :.5.h.f.,.*.N m k 9 9 9 8 @ @ @ # : : @ @ @ = 9 9 9 g m M *.;.u.l.5.,.(  .+.+.@.@.+.@.+.@.&.+.@.@.@.",
"+.+.&.@.@.+.@.@.+.+.+.+.~ v 5.g.f.,.;.m m k < % % : % , 2 2 2 3 3 2 2 2 : : % : * f m m =.>.t.l.5.M P +.@.@.+.@.@.+.@.@.+.+.+.+.",
"+.@.&.+.@.&.+.+.+.@.+.) z e.d.z.,.N M b 9 @ % 3 3 y 3 : w r r r r r w 2 , r 3 3 : @ * k m N >.u.h.f.n R +.+.+.+.+.+.@.+.+.+.+.@.",
"+.+.@.+.+.+.+.+.@.+...( m k f.;.=.N c 0 : 2 3 6 6 6 3 : # X X X X X o , , 6 6 6 3 2 : 8 k m =.=.,.l m I  .+.+.+.@.+.+.&.+.@.+.@.",
"+.+.+.+.%.+.+.+.+.+.W <.5.t.k >.*.k 9 % 6 2 : : : o X X X X X X X X X X X X : : : : 6 : = h N >.m 6.4.2.U | +.+.@.@.@.+.+.+.+.+.",
"+.@.&.&.@.@.@.@.@. .n 5.j.f.N m N 0 % 2 w % o X X X X X X X X X X X X X X X X X o + w 2 % 8 m m N w.z.5.m } +.@.@.%.@.@.+.@.@.@.",
"+.@.+.@.@.@.+.+.+.L 2.2.c.w.m b - # 3 6 # X X X X X X X X X X X X X X X X X X X X X o w 3 : & l m >.z.p.5.b  .@.@.+.@.$.+.&.+.+.",
"$.+.@.+.@.+.+.@.@.L <.i.f.>.m h * , 6 : . X X X X X X X X X X X X X X X X X X X X X X # 6 3 & f m ;.<.n.4.b ..+.@.@.@.+.+.+.@.+.",
"@.+.+.+.+.@.o.s.R v ;.e.f.=.m s + , 3 o o X X X X X X X X X X X X X X X X X X X X X X X , 3 @ - b N ,.n.5.b K r.K.@.@.@.@.+.&.&.",
"@.@.+.@.@.+.J.b.e.m M e.f.N m s # : : @ + X X X X X X X X X X X X X X X X X X X X X X o : : % - b N q.n.>.l 2.z.H.+.@.@.+.@.+.@.",
"+.@.+.@.+.+.| B f.i.c e.f.;.m s , w % r + o X X X X X X X X X X X X X X X X X X X X o 1 1 w 6 - b =.q.c.m 2.z.=._ @.@.+.@.+.+.+.",
"@.&.@.@.+.+.| M ,.u.M q.f.N m s : 6 + + $ + X X X X X X X X X X X X X X X X X X X o % > > w , - b M q.f.b f.,.*./ @.+.@.+.+.$.+.",
"+.&.+.@.+.+.| b m m b m N c k s : 6 + + $ $ o X X X X X X X X X X X X X X X X X X @ 4 p 4 w , - k l M B c m m m ) +.+.@.+.+.+.+.",
"+.@.&.@.+.+.+.W m =.,.<.<.<.:.s : w + X + $ o X X X X X X X X X X X X X X X X X X % $ p 4 r 2 - l m N ;.<.<.<.9. .&.@.+.@.@.@.@.",
"+.@.+.+.+.+.+./ m =.=.m m m b s ; 2 o + + + o X X X X X X X X X X X X X X X X X X   ; u 4 6 , - c m m m N =.N K +.+.@.@.+.+.+.+.",
"+.+.&.+.+.+.+.' K x k k k k k s @ : + q q   X X X X X X X X X X X X X X X X X X X + S t 4 5 # - k k k k k j K ^ @.@.+.$.@.@.@.@.",
"@.@.@.+.@.+.+.&.+.G m m m k m s @ : + q t ; o X X X X X X X X X X X X X X X X X @ , S r > 5 # - b k m m *.k  .$.+.+.+.+.@.@.+.@.",
"%.+.@.+.&.+.@.@.@.H =.=.N k m s % , # A t 1 ; X X X X X X X X X X X X X X X X X @ 1 A r > 5 : - b k N ;.,.c ..@.+.+.@.+.+.+.@.@.",
"@.@.+.@.+.@.@.+.+.H >.>.,.m M s % : # S t > ; X X X X X X X X X X X X X X X X X @ , q r > 1 : - m l =.,.z.m  .+.@.+.+.+.$.@.@.+.",
"+.+.+.&.@.+.@.+.+.J 3.<.f.V ;.s , w ; S t ; % X X X X X X X X X X X X X X X X X @ , q t 4 y 6 - N b ;.<.V.M  .@.@.%.@.+.@.&.@.@.",
"@.@.+.+.@.+.+.+.+.L 3.2.f.V N s # 6 ; S t ; % X X X X X X X X X X X X X X X X X @ , q p > r : - m l <.<.V.M  .@.@.@.@.@.+.@.@.@.",
"@.@.@.@.@.+.+.@.@.L 2.4.l.V m s ; w ; Z q ; % X X X X X X X X X X X X X X X X + ; 1 A C > w , - b l 2.4.p.b ..%.@.+.+.+.&.+.&.@.",
"+.+.+.+.%.@.@.%.+.D >.4.4.m m s ; 6 % Z 1 ; % X X X X X X X X X X X X X X X X @ ; , A A t w , - b l 2.3.5.b  .+.@.+.+.@.@.@.$.+.",
"+.+.@.+.+.%.@.+.@.H >.2.2.m m s # , % Z 1 ; % X X X X X X X X X X X X X X X X o ; , q A u 3 : - b l 2.<.5.b +.@.+.@.+.+.+.@.@.+.",
"@.@.+.+.@.@.@.+.+.H >.2.2.m m s : 6 % Z 1 ; ; X X X X X X X X X X X X X X X X X o > 1 C u w , - b l 2.<.5.b ..@.+.+.+.+.+.+.@.@.",
"@.@.@.+.+.@.+.+.+.H >.5.2.b m s ; 6 % Z @ ; + X X X X X X X X X X X X X X X X X X . O t p w , - b l ,.4.5.b  .+.+.@.$.&.+.+.+.+.",
"@.+.&.+.+.@.&.+.@.H >.l.a.b ;.s % : # Z +   . X X X X X X X X X X X X X X X X X X $ . 1 e 3 : - N b >.5.5.b ..+.@.&.@.@.+.+.+.@.",
"+.+.@.&.+.@.+.@.+.H >.l.f.b ;.s , w # q ; . . X X X X X X X X X X X X X X X X X @ t 1 1 e y 6 - N b >.5.5.b  .@.+.+.+.+.%.$.@.+.",
"+.@.+.+.@.+.+.@.+.H >.l.f.b ;.s : w # t , % o X X X X X X X X X X X X X X X X X # 1 S t e y 2 - N b >.5.5.b ..%.+.@.@.+.+.@.+.@.",
"@.@.+.+.+.+.+.+.@.D >.4.<.c m s : 3 % S t ; o X X X X X X X X X X X X X X X X X # 1 S t e 6 , - b l ;.3.5.b  .+.+.@.@.+.@.@.+.%.",
"&.+.+.@.+.+.@.+.+.H ,.<.N l m s : w % A t @ X X X X X X X X X X X X X X X X X X o > t ; e r 2 - b k N ;.5.b  .+.+.$.@.+.+.+.+.@.",
"+.@.$.@.$.%.+.@.+.H <.>.N l N s : w @ e t + X X X X X X X X X X X X X X X X X X X ;   > 4 y 2 - m l N =.2.c ..+.+.+.@.@.@.@.+.+.",
"+.+.+.$.@.+.@.@./ z =.N m k l s : 3 @ e t ; o X X X X X X X X X X X X X X X X X X ; X 1 7 6 , - k k m M =.k E +.+.+.+.+.+.+.@.+.",
"+.@.+.@.+.+.+.+.Q k k k k j m h : 2 @ 4 4 ; o X X X X X X X X X X X X X X X X X X ; Z 4 e 6 , 9 m k k k k k z W +.+.@.@.+.@.+.+.",
"+.+.@.@.+.@.&.+.Q w.j.j.j.w.j.:.% 2 + > + @ o X X X X X X X X X X X X X X X X X X ; t ; 4 5 : g j.j.j.j.j.j.w.T $.+.@.@.+.@.@.+.",
"@.+.+.+.+.@.@.$.Q w.k.c.z.f.f.-.@ : + > + % o X X X X X X X X X X X X X X X X X X ;   > 4 5 # d u.f.f.f.f.f.q.K +.+.@.@.&.+.+.@.",
"@.%.@.@.@.@. .9.7.k l m b l l f @ % o > + ; o X X X X X X X X X X X X X X X X X X ; > > 4 , # 8 k l l l l l k K @.@.%.@.@.+.@.&.",
"@.@.+.+.@.+.O.G.c.y.4.2.y.y.y.=.; 6 + ; + ; o X X X X X X X X X X X X X X X X X X O > $ 4 r , s y.y.y.y.y.y.d.M.X.+.+.@.@.@.@.@.",
"@.@.+.@.@.@.y.u.f.z.z.c.c.c.c.0.: w @ $ $ + X X X X X X X X X X X X X X X X X X X X $ $ 4 y 2 g z.c.c.c.c.z.z.u.y.@.+.@.+.@.@.@.",
"@.+.@.+.+.+.l.>.M ,.2.5.3.2.2.M : w + @ % $ o X X X X X X X X X X X X X X X X X X X > 4 4 y 2 a >.2.3.2.2.,.>.M h.@.@.+.@.+.+.@.",
"+.+.@.@.%.+.C.>.M ,.<.<.,.>.N k ; w @ > $ $ o X X X X X X X X X X X X X X X X X X o > 4 4 r , 0 N ;.,.>.>.>.=.M n.@.+.+.@.@.+.+.",
"+.+.+.+.+.+.C.>.m ;.;.;.N M m h @ , @ 4 $ $ o X X X X X X X X X X X X X X X X X X X ; i i 5 % 9 m m N ;.;.;.N M n.&.+.+.&.+.+.@.",
"+.@.+.@.+.+.C.t.M M M M M M M j @ : @ 7 $ $ o X X X X X X X X X X X X X X X X X X O + > 4 3 # 0 M M M M M M N ,.N.+.+.@.@.+.+.@.",
"+.+.+.+.+.@.A.B.c.c.c.c.c.c.c.>.@ : + ; O O X X X X X X X X X X X X X X X X X X X + X % 4 3 # g c.c.c.c.c.c.c.V.A.+.@.+.$.+.@.@.",
"@.@.+.+.+.+.M p.d.d.d.d.d.d.1.M @ # + > X X X X X X X X X X X X X X X X X X X X X X X o ; ; # s 2.p.d.d.d.2.2.t.-.@.+.+.%.+.@.+.",
"@.@.+.@.@.&.k <.4.5.5.4.2.>.;.b @ # o X X X X X X X X X X X X X X X X X X X X X X X X X X @ # a >.>.,.4.4.4.3.>.m +.+.+.@.@.@.+.",
"+.@.+.+.@.+.k >.<.2.2.<.>.;.N l = - - - - - = = = = = = = = = = = = = = = = = = = - - - - - = s N =.>.<.<.2.2.>.m @.+.+.+.+.+.@.",
"+.@.+.@.+.+.k >.=.*.*.*.*.N m l h b M m b b l k b b b m b b b b b b b b b b b k k b b b b b k h m M N *.*.*.=.>.m +.@.+.+.+.@.@.",
"+.@.+.+.+.+.j l k k k k k k k k b ;.3.2.;.;.=.k M =.,.2.;.;.;.;.;.;.;.;.;.;.=.b b =.;.;.;.N m k k k k k k k l b k @.@.@.+.+.@.&.",
"@.@.+.+.@.+.k m M ;.>.>.>.>.>.>.>.3.5.4.4.4.2.m =.3.p.p.p.p.p.4.p.p.p.p.p.4.,.*.=.>.4.4.2.,.>.=.M =.;.;.;.;.;.;.b @.+.@.$.@.@.@.",
"@.&.+.+.@.@.k =.w.j.l.l.l.p.p.l.l.l.l.l.l.p.3.*.3.5.C.A.A.A.C.l.V.A.A.A.A.c.j.;.=.<.l.l.l.l.l.f.w.2.2.2.2.2.<.>.m +.+.@.&.@.&.@.",
"@.&.+.@.+.@.k ,.z.A.A.A.D.Z.V.S.S.A.A.A.A.n.3.=.5.l.C.A.A.A.A.A.A.A.A.F.F.F.A.y.,.j.A.A.A.D.A.S.A.Z.N.c.c.c.4.2.m +.@.+.+.+.@.+.",
"+.&.@.@.+.@.k 3.c.A.A.A.A.S.A.A.A.A.A.A.A.C.y.,.5.d.h.h.h.B.A.A.A.A.A.S.S.S.A.f.2.d.h.h.V.S.D.A.S.S.S.A.A.A.V.V.=.@.@.@.@.+.+.+.",
"@.+.+.@.@.+.8.8.8.8.8.8.8.8.8.8.8.8.8.8.8.8.8.8.8.8.8.8.8.8.8.8.8.8.8.8.8.8.8.8.8.8.8.8.8.7.8.8.8.8.8.7.8.8.8.8.8.@.@.+.&.@.+.@."
};
