/* XPM */
static char *_6b0dc9ac1954ccb98e10fb1e6cdeeb26DOIwuKyHZCoE7R3[] = {
/* columns rows colors chars-per-pixel */
"64 64 223 2 ",
"   c #0D0C0A",
".  c #090907",
"X  c #120E0D",
"o  c #0B160D",
"O  c #13110F",
"+  c #18150F",
"@  c #0C1716",
"#  c #151210",
"$  c #191613",
"%  c #1A1A16",
"&  c #1A1B1A",
"*  c #141A19",
"=  c #211E1C",
"-  c #350E10",
";  c #0C2716",
":  c #1E221D",
">  c #112716",
",  c #0C3C1C",
"<  c #0B3219",
"1  c #12371D",
"2  c #25221D",
"3  c #282A1C",
"4  c #322D1C",
"5  c #161E24",
"6  c #182426",
"7  c #0D3C27",
"8  c #183728",
"9  c #1F2A33",
"0  c #182531",
"q  c #173736",
"w  c #0B2638",
"e  c #232423",
"r  c #2A2522",
"t  c #2E2925",
"y  c #2C2C2C",
"u  c #242927",
"i  c #342D2A",
"p  c #312B26",
"a  c #293327",
"s  c #39322E",
"d  c #393427",
"f  c #212C35",
"g  c #23323E",
"h  c #3A3A38",
"j  c #481516",
"k  c #4F2A1C",
"l  c #483926",
"z  c #5A3E25",
"x  c #601B1C",
"c  c #0A411D",
"v  c #0C4B22",
"b  c #0D4523",
"n  c #144727",
"m  c #0B5425",
"M  c #0D5B29",
"N  c #0D5429",
"B  c #144C38",
"V  c #324C30",
"C  c #0E632C",
"Z  c #0D6A2F",
"A  c #10632D",
"S  c #0E6D30",
"D  c #136832",
"F  c #0E7533",
"G  c #0F7935",
"H  c #117434",
"J  c #117B36",
"K  c #127C3A",
"L  c #246939",
"P  c #48432D",
"I  c #4A4833",
"U  c #5B5538",
"Y  c #514D33",
"T  c #674324",
"R  c #764C28",
"E  c #714926",
"W  c #645B3D",
"Q  c #69613F",
"!  c #1A3646",
"~  c #10344D",
"^  c #233747",
"/  c #253E53",
"(  c #0E3E60",
")  c #653D41",
"_  c #194942",
"`  c #135046",
"'  c #2B4A5E",
"]  c #284459",
"[  c #374A5B",
"{  c #304848",
"}  c #197549",
"|  c #2C724F",
" . c #0C4268",
".. c #134E74",
"X. c #2E4B64",
"o. c #2F4E69",
"O. c #294A63",
"+. c #324D65",
"@. c #30516D",
"#. c #3A5267",
"$. c #325573",
"%. c #335877",
"&. c #345B7B",
"*. c #395B76",
"=. c #2E536F",
"-. c #37637F",
";. c #2E776E",
":. c #595959",
">. c #4D554D",
",. c #6E5E47",
"<. c #496B53",
"1. c #6C6444",
"2. c #736A45",
"3. c #706744",
"4. c #7B734B",
"5. c #7F7056",
"6. c #455A6B",
"7. c #485A66",
"8. c #5A6468",
"9. c #516C70",
"0. c #676A68",
"q. c #79766C",
"w. c #6E706D",
"e. c #931723",
"r. c #B91D2C",
"t. c #AA1B28",
"y. c #82151F",
"u. c #887656",
"i. c #81744F",
"p. c #827C6D",
"a. c #817F73",
"s. c #12843A",
"d. c #128C3D",
"f. c #1A833F",
"g. c #149441",
"h. c #159C45",
"j. c #188847",
"k. c #17A147",
"l. c #17A348",
"z. c #79837E",
"x. c #5B9F73",
"c. c #8C8155",
"v. c #958A5A",
"b. c #9C915F",
"n. c #9D8D71",
"m. c #958667",
"M. c #A79966",
"N. c #A08F72",
"B. c #A59273",
"V. c #AC9674",
"C. c #A6977A",
"Z. c #B69D76",
"A. c #B89E76",
"S. c #BA9F78",
"D. c #A08A67",
"F. c #B4A66D",
"G. c #BCAE72",
"H. c #BAA078",
"J. c #BAA077",
"K. c #BEB073",
"L. c #AFA16A",
"P. c #C8B879",
"I. c #D2C27F",
"U. c #0C5688",
"Y. c #0D5D94",
"T. c #105E94",
"R. c #365F81",
"E. c #0D619C",
"W. c #366184",
"Q. c #396384",
"!. c #39668B",
"~. c #39688E",
"^. c #376589",
"/. c #3A6D94",
"(. c #3B6F98",
"). c #3C729B",
"_. c #3E7097",
"`. c #0E6CAD",
"'. c #0D67A5",
"]. c #0F71B6",
"[. c #0F75BB",
"{. c #0F6CAD",
"}. c #3D76A2",
"|. c #3E79A6",
" X c #3E7AA8",
".X c #41769E",
"XX c #437397",
"oX c #4D728C",
"OX c #4379A2",
"+X c #427DAB",
"@X c #487EA5",
"#X c #727F82",
"$X c #44829C",
"%X c #788785",
"&X c #76919C",
"*X c #4B83AC",
"=X c #4683AE",
"-X c #4987B4",
";X c #4C89B6",
":X c #4D8CBA",
">X c #4684B2",
",X c #518EBA",
"<X c #508CB7",
"1X c #5191BE",
"2X c #5A91B4",
"3X c #4F90BE",
"4X c #6C9E92",
"5X c #5393C1",
"6X c #5A9DCB",
"7X c #5799C7",
"8X c #5EA0CD",
"9X c #62A3CF",
"0X c #909794",
"qX c #A69D86",
"wX c #B8B9B9",
"eX c #AAABAB",
"rX c #DFCD86",
"tX c #D6C581",
"yX c #C9CBCB",
"uX c #D5D5D6",
"iX c #E9E9E9",
"pX c #FFFFFF",
"aX c #EFEFF0",
/* pixels */
"Z.Z.Z.S.Z.S.Z.Z.S.S.S.Z.Z.Z.Z.S.Z.H.S.Z.S.S.Z.Z.Z.Z.Z.V.V.N.7.#.#.#.7.B.B.B.Z.S.Z.S.S.Z.Z.Z.Z.Z.,.Z.S.Z.Z.Z.Z.S.S.Z.Z.S.Z.Z.S.Z.",
"Z.Z.J.S.Z.S.S.Z.Z.S.S.Z.Z.Z.Z.Z.Z.S.S.S.Z.S.S.Z.Z.n.m.+.#.*.(.!./ ).).*.#.[ p.B.S.Z.S.S.Z.m.D.Z.I I S.Z.Z.Z.Z.S.S.Z.Z.S.S.Z.Z.Z.",
"S.Z.S.S.S.S.Z.Z.S.Z.Z.Z.S.Z.Z.Z.Z.S.Z.Z.Z.S.S.n.w.9.R.R./. X X=.u u ! q q 7 b n n n V I W ,.% > 2 m u.V.i.i.D.S.Z.Z.S.Z.Z.Z.Z.Z.",
"S.S.S.Z.Z.S.S.Z.Z.Z.Z.Z.Z.Z.S.S.Z.Z.S.Z.Z.Z.B.7.%.). X X}.%._ * y y y u D k.l.l.l.l.l.l.k.d.H m F F 3 b M a u.S.S.Z.Z.Z.Z.S.Z.Z.",
"Z.S.Z.Z.S.J.S.S.Z.Z.Z.Z.S.Z.S.S.S.S.S.Z.V.8.#.%.|. X;X' N g.g.u y y y y u 8 g.l.l.l.l.l.l.l.l.h.d.d.J m l V.Z.Z.Z.Z.Z.S.Z.S.Z.Z.",
"S.Z.Z.Z.S.S.S.Z.Z.Z.S.S.S.S.Z.S.S.S.Z.q.X.=.).%.;X5Xq h.l.l.H y y y y y y y 8 s.l.l.l.l.l.l.l.l.g.d.s.S , d u.S.S.Z.S.Z.S.S.S.Z.",
"S.S.Z.Z.S.S.S.Z.Z.Z.Z.S.Z.S.S.S.Z.p.0.Q./. X;XXX/.=.6 h.l.l.1 e 6 e e u y y y u s.l.l.l.l.l.l.l.h.d.d.8 B.Z.S.S.Z.Z.S.Z.S.S.S.S.",
"S.S.Z.Z.S.S.Z.S.S.S.Z.S.S.S.S.Z.m.[ ~.|. X;X@X_.' u e d.l.l.h.h.h.h.g.s.A 8 e 8 g.l.l.l.l.l.l.l.k.d.M u.Z.Z.S.S.Z.Z.S.Z.S.S.S.S.",
"S.S.Z.S.S.Z.S.S.S.Z.Z.Z.S.Z.Z.q.+./. X-X5XOX!.W.' u u C l.l.l.g.M 8 , g.l.l.g.s.l.l.l.l.l.l.l.l.l.d.n Z.Z.S.J.S.S.S.S.Z.Z.Z.S.Z.",
"S.S.Z.Z.Z.S.S.S.Z.Z.Z.Z.Z.Z.N.+.W.|.>X*X/.!.%.%.' u y , l.l.l.L yXpXiX<.h.l.k.l.l.l.l.l.l.l.l.l.h.d.V Z.Z.S.S.S.S.S.S.S.Z.S.Z.Z.",
"S.S.S.Z.Z.S.S.Z.Z.S.Z.Z.Z.Z.w./. X;X@X!.R.%.%.] 0 u h { l.l.d.wXpXpXpXyXD k.l.l.l.l.l.l.l.l.l.l.h.d.{ Z.Z.S.Z.Z.S.Z.S.H.Z.S.Z.S.",
"S.Z.Z.S.S.Z.Z.Z.Z.S.Z.Z.Z.w.$. X>X@X~.W.$.$.O.6 = % eX%Xg.l.| wXwXpXpXiX<.h.l.l.l.l.l.l.l.l.l.l.g.S / 0.Z.S.Z.Z.S.Z.S.S.Z.Z.Z.S.",
"S.Z.S.S.S.Z.Z.Z.Z.Z.Z.Z.w.+..X>X*X/.&.%.o.g 6 r t e wX0Xs.l.9.pXpXpXpXaX9.g.l.l.l.l.l.l.l.l.l.l.d.v /.' w.Z.Z.Z.Z.Z.S.Z.Z.Z.Z.S.",
"S.Z.S.S.Z.S.S.Z.Z.Z.Z.V.9.$.@.@XW.W.%.X.f r p i s i uXiXA l.9.pXpXpXpXiX<.g.l.l.l.l.l.l.l.l.l.h.d.7 =.$.9.V.Z.Z.Z.Z.S.S.Z.Z.Z.S.",
"Z.Z.Z.Z.Z.S.S.Z.Z.Z.V.9.). XXX@.~.&.' f r s t r r 2 eXpXV l.| pXpXpXpXyXL g.l.l.l.l.l.l.l.l.l.g.d.q XX X).9.B.Z.S.Z.S.S.Z.S.Z.S.",
"Z.S.Z.Z.Z.S.S.Z.Z.Z.N.%. X:XOX%.%.%.f 2 p s = $ # # h iXw.k.f.yXpXpXaX%XJ h.l.l.l.l.l.l.l.l.l.d.d.! .X:X|.%.n.S.S.S.S.Z.Z.S.Z.Z.",
"S.S.S.S.Z.S.S.Z.Z.V.8.).}.,X/.%.@.9 e i s 2 # # # # O :.z.g.l.| wXuXz.D g.l.l.l.l.l.l.l.l.l.h.d.S ] ~.1X+X}.6.Z.S.S.S.S.Z.S.S.Z.",
"Z.S.S.Z.Z.Z.S.S.S.V.6.).-XOX!.$.' 5 p s 2 O # # # # # #   H l.h.c < Z s.k.l.l.l.l.l.l.l.l.l.g.d.v o.!._.1X X@.V.S.S.S.S.Z.S.Z.Z.",
"Z.Z.Z.Z.Z.S.S.qX%X0.#.!.*XOXR.@.g & i t # # # # # # # # O c d.s.s.d.h.l.l.l.l.l.l.l.l.l.l.l.d.d., @.&./.1X|.@.0.#XqXZ.Z.Z.S.Z.Z.",
"Z.Z.Z.Z.S.S.Z.0X1X_.o.%.*X.X%.@.g = r r % % # # # # # # # .     >.:.# o b H h.l.l.l.l.l.l.h.d.d.; @.%..X1X~.X.).<X0XZ.Z.S.S.H.S.",
"Z.S.Z.Z.S.Z.Z.a.W.*X.Xo.*X.XW.@.g i s r y & # # # # # = :.:.O # & - - j - X ; H l.l.l.l.l.d.d.d.* @.W..X<X%._.-X^.a.S.S.Z.Z.Z.S.",
"S.Z.Z.S.S.S.S.q.&.(.@X@.@X.X%.@.g t i % & : % #       >.0X0.- ) iX5.t.r.r.t.y.- M l.h.l.g.d.d.S 5 @.%..X*X@.*X(.R.p.S.Z.S.Z.Z.Z.",
"S.Z.Z.Z.Z.Z.Z.q.$.%.%.@.-.&.@.X.g t i $ & : : #   K l.l.h.d.J C n V x e.r.t.e.e.k h.h.g.d.d.d.v 0 X.o.&.Q.@.%.%.%.q.Z.S.S.S.S.Z.",
"S.Z.Z.Z.S.Z.Z.B.8.%.W././././.W.g t s # # & : # # < k.l.l.l.l.l.l.l.k.J n x t.t.4 g.g.d.C M F < 9 o.$.W.^./././.oXB.Z.S.Z.Z.Z.Z.",
"S.Z.Z.Z.S.Z.Z.Z.0.&.!.!.%.&.&.$.^ t p # # & : # #   s.l.l.l.l.l.k.l.k.l.l.h.A k 4 g.d.J m Z # $ 9 @.%.%.%.!./.W.0.S.Z.Z.S.Z.S.S.",
"S.Z.Z.Z.Z.Z.Z.Z.p.8.+.X.X.X.O.O.^ = r & h y o # # O , l.l.l.l.l.l.l.l.l.l.l.l.h.H h.d.F C Z 2 = 9 O.O.X.X.X.O.8.q.S.S.S.Z.S.Z.Z.",
"Z.Z.Z.Z.Z.S.Z.S.S.V.7.%.%.%.X.@.g = r % h h & # # # o g.l.l.l.l.l.l.l.l.l.l.l.l.h.d.d.J M S 2 = 9 @.X.%.%.&.X.V.S.Z.Z.S.S.S.S.Z.",
"Z.Z.Z.S.S.S.Z.Z.S.V.6.!.&.%.X.@.g r t r :.h y = # # O v l.l.l.l.l.l.l.l.h.g.s.J F F F F m H # = 9 @.X.%.!.!.o.V.Z.Z.Z.S.S.S.Z.S.",
"S.S.Z.Z.S.S.S.S.S.V.6./.!./.O.q 6 2 2 t :.h u = # # # o h.g.J C m , ; o . .       < C m , U L.% 9 @.o.~.~.;X$.V.Z.Z.Z.Z.Z.Z.Z.S.",
"S.S.Z.Z.Z.Z.S.S.Z.V.6.}./.@X7 g.N t s t :.h $ P Y U U U Y 1.2.2.2.2.2.1.W W U Y l V L > i.rXP.i 9 %.@.~./.5X$.V.Z.Z.Z.Z.S.Z.Z.S.",
"S.S.Z.S.Z.Z.Z.Z.Z.V.6. X).-Xn g.s.% p : v M v F.rXrXrXrXrXrXrXrXrXrXrXrXrXrXrXrXrXrXrXrX4.I.K.d 9 $.@.).(.5X$.V.S.S.Z.S.S.S.S.S.",
"S.S.Z.Z.Z.Z.Z.Z.Z.V.#.] ] Q.8 s.H < C h.l.l.k.V tXrXrXrXrXrXrXrXrXrXrXrXrXrXrXrXrXP.F.v.v.P.K.P 9 @.o.|.}.=X@.V.S.S.S.S.Z.S.S.S.",
"S.Z.Z.Z.Z.Z.Z.Z.S.V.q s.d.H C M H h.l.l.l.l.Z @ v.rXrXrXrXrXrXrXrXrXtXtXI.P.P.G.M.M.M.U G.K.K.Y 9 @.o. X|. X@.V.S.S.S.S.S.Z.S.S.",
"S.S.Z.Z.S.S.S.S.S.5.S l.J m F h.l.l.l.l.l.s.> & 2 F.L.M.L.G.P.P.P.P.K.K.K.K.K.K.K.F.v.P P.K.K.U 9 @.o.}.(. X@.V.Z.Z.Z.Z.S.Z.S.S.",
"S.Z.Z.S.S.Z.Z.Z.V.a g.d.B ! J h.g.d.k.l.h.< e e O 4 c.M.F.K.K.K.K.K.K.K.K.K.M.4.2.i.v.G.P.K.K.2.0 @.o.}.(. X@.V.Z.Z.Z.Z.S.S.H.Z.",
"Z.Z.S.S.Z.Z.Z.S.Z.1.n 7 W.B g.C ; M h.k.v & u $ + U v.K.K.K.K.K.K.K.G.b.1.1.c.F.tXrXrXrXK.K.K.c.6 @.o.).}.|.@.V.Z.Z.Z.Z.S.S.S.Z.",
"Z.Z.S.Z.Z.Z.S.S.S.V.7.W.:X_ h.M 0 v h.d.a %   ; v 4.Q G.K.K.K.G.b.3.1.4.W G.rXrXrXrXtXtXK.K.K.M.5 %.@./. X X@.V.Z.Z.S.Z.Z.Z.Z.S.",
"Z.Z.S.S.Z.Z.S.S.S.V.6./.:X_ h.S 6 , h.d.y * v g.l.H 4 2.G.M.2.1.4.M.G.K.2.rXrXrXrXtXtXP.K.K.K.G.5 %.@./. X X@.V.Z.S.S.S.Z.Z.Z.S.",
"S.Z.S.S.S.S.S.S.Z.V.6./.:X_ g.K @ o J g.< v h.l.l., X + d Y b.G.K.K.K.F.2.rXrXrXrXP.tXP.K.K.K.K.y %.@./. X X@.V.S.S.S.S.Z.Z.Z.S.",
"S.S.S.S.Z.Z.S.Z.Z.V.6./.+XO.q q 6 * c C s.v g.l.h.o # O + v.K.K.K.K.M.l 3.rXrXrXrXG.I.P.K.K.K.K.d $.o./.|. X@.V.Z.S.Z.Z.S.S.Z.S.",
"Z.Z.Z.Z.Z.Z.Z.Z.Z.V.6.).~.&.' ^ 6 1 m M m m d.l.J O # # # % 4.K.K.c.2   v.rXrXrXrXF.P.K.K.K.K.K.Y @.X.&.~. X@.V.Z.Z.Z.Z.S.S.S.S.",
"Z.Z.Z.Z.Z.S.Z.Z.S.V.6.}.Q.W.! H d.d.s.k.h.g.k.l.b O # # # # # W 3.$ # $ F.rXrXrXrXM.P.K.K.K.K.K.W o.o.W.W.}.@.V.S.S.S.Z.S.S.Z.S.",
"S.Z.Z.Z.Z.Z.Z.Z.Z.q.#.!.%.%.B h.K > m h.C c g.k.; # # # # # # O O # # 3 tXtXrXrXrXv.K.K.K.K.K.K.i./ X.%.%.!.o.w.S.S.S.Z.Z.Z.Z.S.",
"S.Z.S.Z.Z.Z.Z.Z.Z.8.O.o.X.X.N h.M & M g.; : F k.c O # # # # # # # # # P F.U rXrXI.c.K.K.K.K.K.K.M.! X.X.X.o.O.+.q.S.S.Z.Z.S.Z.Z.",
"S.H.S.Z.Z.Z.Z.Z.Z.8._.OXOX/.8 N 8 r < h.C $ , g.d., o O # # # # # # O d O.' rXL.:.{ M.K.K.L.K.K.K.' OXOXOXOXOX/.8.Z.Z.Z.Z.Z.S.Z.",
"S.Z.Z.S.Z.S.S.Z.Z.8.*X,X5X<X*X*X@.= % s.g.; % < m J ,   # # # # # # X @ `. .>...`.`.>.F.1.O.>.M.K.>.<X<X<X<X<X.X8.Z.Z.Z.Z.Z.Z.Z.",
"S.Z.Z.Z.Z.Z.Z.n.%X6.$.%.&.%.$.$.^ = = v M ; e # X o O # # # # # # # # O U.'.`.[.[.[.Y.{ E.[.`.O.1.h $.$.$.$.$.X.8.Z.S.S.Z.S.Z.Z.",
"Z.S.S.S.A.Z.Z.B.&X+X/./.~./././.' r i # : % u # # # # # # # # # # # # O w `.[.[.[.[.[.`.[.[.[.`.~ q /././././.).&XZ.S.S.S.S.S.S.",
"Z.S.S.Z.S.S.C.@X*X<X,X1X5X5X5X5X*.t s % : : % # # # # # # # # # # # # # O ~ '.].`.[.[.].E.`.`. .q <X1X5X5X5X1X1X*X@XS.S.S.Z.Z.S.",
"Z.Z.Z.Z.Z.Z.qX=XW.W./.}.+X|.}.}.X.t s % : : : # # # # # # # # # # # # # # O w ..U.].[.[.U.U.~ & ^ /.).+X}.}.(./.R.=XS.S.S.Z.S.H.",
"S.S.S.S.Z.Z.qX1X&.R./.).)./.!.R.] t s & u 2 : # # # # # # # # # # # # # # # U.U. .Y.[.[.Y.6 s t g R.!.(.~.~.~.W.%.1XZ.S.S.S.S.S.",
"S.Z.S.S.S.S.qX1X&.&.!.!.!.&.%.%./ = t 2 a : : # # # # # # # # # # # # # # 0 ].[.]...].[.].] s 2 g %.%.&.!.!.!.R.%.1XS.Z.Z.Z.Z.S.",
"Z.Z.Z.Z.S.Z.qX1XW.o.o.o.o.o.X.X.^ = r 2 a : : # # # # # # # # # # # # # # ( [.[.Y.* ..[.[.U.t = f X.X.o.o.o.o.o.&.1XZ.Z.S.Z.Z.S.",
"Z.Z.Z.Z.S.S.qX6X1X-X-X-X-X-X-X-X$.= r & u % % # # # # # # # # O # # # # * E.[.]. .# 6 `.Y.`.! = ] -X-X-X-X-X-X-X3X6XZ.S.S.Z.Z.Z.",
"Z.Z.Z.Z.S.S.C.@X:X:X:X:X:X:X:X*X@.= 2 % & # # # # # # # # # O O # # # # ~ [.[.`.w # # w K U.Y.& ] *X;X:X:X:X*X*X-XOXZ.S.S.Z.Z.S.",
"Z.Z.Z.Z.Z.S.n.$.). X X X X)./.~.] = = $ $ # # # # # # # # # O O # # # # Y.[.[.Y.# # # # A U.]. .^ ~./.(. X X}.)./.$.S.S.S.Z.Z.S.",
"Z.Z.S.S.S.S.n.$.~.).|.|.(.~.!.&.] & & & & & & % % % % % % * * % % % % ~  ...E. .* * & & 5 [.[.].U.=.W.~././.}.).~.$.Z.S.S.Z.S.S.",
"Z.Z.Z.S.S.S.N.$.~.!.W.W.W.W.%.%.O.' X.@.o.X.X.O.O.X.X.X.] A 7 ] X.X./ / ! ` ~ ( O.O.X.X.O.T.[.[.[.Y.O.W.W.W.W.W.~.$.Z.S.S.Z.S.S.",
"Z.S.Z.Z.Z.Z.n.X.%.@.o.o.o.o.o.o.X.$.W.)./.W.W.%.o.%.W.W.` x.g.j.=.W.%.W.` S ] ] @.@.R.W.W...'.X.' Y z O.o.o.o.@.%.X.Z.S.S.S.S.Z.",
"S.Z.S.Z.Z.Z.N.X.$.$.R.W.W.W.W.W.W.^.}. X|.}.}.~.%.W.}./.| 4Xg.l.} -.)./.j.| ).&.&.&.$.+.[ I T R R E T h W.W.W.W.W.@.Z.Z.Z.Z.S.S.",
"Z.Z.S.S.Z.Z.n.o.W./.OX+X+X+X|.|.+X+X+X+X+X+X X/.W.).+X7X*X$X;.d.h.g.j.j.h.;.>X}.W.{ T E R R R R T y { R././././.~.$.Z.Z.Z.Z.S.S.",
"Z.Z.Z.Z.S.S.N.$./.<X6X6X6X8X:X:X8X6X6X6X6X6X-X/.~. X-X6X6X6X6X$X| } } g.h.;.9X7X-.z R R R R T l 7.*X;X;X>X>X>X}./.$.S.S.Z.Z.S.S.",
"Z.S.Z.Z.Z.S.B.%.}.5X6X6X6X9X9X6X8X6X6X6X6X6X6X)./. X;X;X;X:X7X6X6X5X1X;.K | 9X6X9.E R R T l 7.2X8X9X9X9X6X6X6X:X:XQ.S.S.S.S.S.S.",
"Z.S.S.S.S.S.B.^./..XOXOXOXOXOXOXOXOXOXOXOXOXOX/././././././..XOXOXOXOX.X/.~.OXOXQ.z z l { !.OX@XOXOXOXOXOXOXOXOXOX~.Z.S.S.S.S.S."
};
