/* XPM */
static char *_25a9d66430e48358f5876ac879f2a3dfuy3iKmLXr8EtbVs[] = {
/* columns rows colors chars-per-pixel */
"64 64 212 2 ",
"   c #0F1711",
".  c #211F1E",
"X  c #1A2B18",
"o  c #173A1D",
"O  c #0D2C16",
"+  c #2C2E1C",
"@  c #1A3C25",
"#  c #2C2C2D",
"$  c #252725",
"%  c #283D25",
"&  c #363826",
"*  c #38332E",
"=  c #7F151F",
"-  c #6C1B22",
";  c #433A28",
":  c #543B22",
">  c #462F20",
",  c #643A28",
"<  c #0B431E",
"1  c #0B4C23",
"2  c #1B4323",
"3  c #1B4B26",
"4  c #144824",
"5  c #0B5324",
"6  c #0B5827",
"7  c #0E5C29",
"8  c #135529",
"9  c #1C532B",
"0  c #155D2C",
"q  c #1B5B2D",
"w  c #115326",
"e  c #0D5A3C",
"r  c #244225",
"t  c #2E4228",
"y  c #234B28",
"u  c #2D482A",
"i  c #38472D",
"p  c #23542C",
"a  c #28562F",
"s  c #275833",
"d  c #3D5434",
"f  c #3D5A36",
"g  c #345833",
"h  c #3E4C31",
"j  c #0E632C",
"k  c #0E692E",
"l  c #14622E",
"z  c #19622E",
"x  c #146C31",
"c  c #196933",
"v  c #0F7333",
"b  c #0F7B36",
"n  c #117233",
"m  c #127B37",
"M  c #137E38",
"N  c #1D7E3D",
"B  c #0F6C30",
"V  c #226939",
"C  c #336839",
"Z  c #2A743C",
"A  c #47422E",
"S  c #5B442C",
"D  c #4E4C34",
"F  c #444731",
"G  c #554B38",
"H  c #495739",
"J  c #5C533C",
"K  c #57593C",
"L  c #52513A",
"P  c #6B4524",
"I  c #664324",
"U  c #764C28",
"Y  c #724926",
"T  c #635C3C",
"R  c #68533B",
"E  c #775A3B",
"W  c #123D58",
"Q  c #083D62",
"!  c #2A4A49",
"~  c #3B4C4E",
"^  c #284653",
"/  c #315753",
"(  c #347B44",
")  c #336A44",
"_  c #0C4B75",
"`  c #0C4E7C",
"'  c #154868",
"]  c #275B7D",
"[  c #3A5E72",
"{  c #0E4B4A",
"}  c #5C5D41",
"|  c #5E5545",
" . c #47514E",
".. c #615B42",
"X. c #695E48",
"o. c #6C5A57",
"O. c #406F40",
"+. c #58784B",
"@. c #5C645C",
"#. c #516E5B",
"$. c #6C6244",
"%. c #6C6449",
"&. c #646547",
"*. c #716545",
"=. c #736A45",
"-. c #72634A",
";. c #766B4B",
":. c #7B694D",
">. c #7B6548",
",. c #7D754C",
"<. c #7D6D52",
"1. c #766953",
"2. c #777653",
"3. c #697155",
"4. c #435962",
"5. c #4B6977",
"6. c #556C6A",
"7. c #766E61",
"8. c #64766C",
"9. c #79746B",
"0. c #7B796A",
"q. c #646564",
"w. c #81161F",
"e. c #8F1923",
"r. c #9B1A26",
"t. c #A91A28",
"y. c #BB1E2C",
"u. c #8F2C2E",
"i. c #885D4A",
"p. c #80764E",
"a. c #806E52",
"s. c #847255",
"d. c #867B51",
"f. c #897659",
"g. c #8D795B",
"h. c #8B7954",
"j. c #917C5C",
"k. c #897C65",
"l. c #857A70",
"z. c #11833A",
"x. c #128B3D",
"c. c #13903F",
"v. c #149441",
"b. c #159B45",
"n. c #17A147",
"m. c #17A348",
"M. c #418348",
"N. c #458353",
"B. c #7B8359",
"V. c #55946B",
"C. c #73887B",
"Z. c #8D8255",
"A. c #85865D",
"S. c #928758",
"D. c #978B5B",
"F. c #9D915F",
"G. c #8D836C",
"H. c #958163",
"J. c #9A8463",
"K. c #9E8966",
"L. c #978A67",
"P. c #8E8373",
"I. c #A08A67",
"U. c #A48D69",
"Y. c #A89B66",
"T. c #A6916D",
"R. c #AB936E",
"E. c #A59964",
"W. c #AE9670",
"Q. c #B09771",
"!. c #B69C75",
"~. c #B99E77",
"^. c #BA9F78",
"/. c #AEA169",
"(. c #B2A56C",
"). c #B7A96E",
"_. c #BAA077",
"`. c #BBAD71",
"'. c #BBA078",
"]. c #BEB073",
"[. c #C3B476",
"{. c #CCBC7B",
"}. c #C6B778",
"|. c #D3C27F",
" X c #0C5486",
".X c #1A5B87",
"XX c #0E5D94",
"oX c #186497",
"OX c #2E6485",
"+X c #0D66A3",
"@X c #0E6AAB",
"#X c #1268A4",
"$X c #0E6EB1",
"%X c #0F71B5",
"&X c #0F75BB",
"*X c #1070B1",
"=X c #446D82",
"-X c #7F9888",
";X c #919D96",
":X c #8B938E",
">X c #94A299",
",X c #9EA6A1",
"<X c #A2A5A3",
"1X c #B3B4B4",
"2X c #DFCD86",
"3X c #D7C681",
"4X c #C8C8C8",
"5X c #DBDCDC",
"6X c #E8E9E9",
"7X c #F5F5F5",
"8X c white",
"9X c #F8F8F9",
/* pixels */
"Q.!.~.!.!.!.~.~.~.!.!.~.!.!.~.!.!.~.~.~.~.!.~.~.!.!.~.~.!.~.!.~.!.~.~.~.'.!.!.!.~.!.~.~.!.!.!.!.~.~.~.~.!.~.Q.!.~.!.!.~.!.~.!.!.",
"!.!.~.~.~.'.'.!.!.~.!.!.~.!.!.~.!.~.!.!.~.~.!.~.~.!.!.!.~.~.~.!.~.'.~.!.~.~.!.!.~.~.!.~.~.!.s.f.!.!.!.!.!.~.!.!.~.!.Q.!._.!.!.!.",
"~.!.~.~.~.~.~.~.~.~.!.!.!.!.~.!.!.!.!.!.!.!.!.!.~.!.~.!.!.Q.~.f.<.R.!.Q.R.T.R.R.W.Q.!.Q.s.j.g.X K.!.~.!.~.!.~.!.!.!.~.~.!.!.!.!.",
"~.~.~.!.'.!.!.!.~.~.~.~.!.!.!.!.!.^.~.!.~.~.!.!.!.~.~.!.!.!.Q.* # # $ 9 c c c c z p u F ;   @ < H I.J D <._.~.!.~.!.!.~.!.~.!.!.",
"'.~.!.!.~.~.!.'.'.'.!.~.!.~.!.~.!.~.~._.~.~.~.!.!.~.~.Q.:.f 9 $ # # # @ z.m.m.m.m.m.m.n.v.M b v < 0 5 L J.~.!.!.!.!.!.~.!.~.Q.!.",
"'.~.!.~.~.!.!.!.!.~.~.!.~.~.~.~.~.'.~.!.~.~.!.!.~.!.:.3 x.m.c # # # # # $ l m.m.m.m.m.m.m.m.v.x.z.5 X ;.Q.~.!.~.~.!.!.!.!.~.'.~.",
"!.~.!.~.^.!.~.~.!.!.!.!.!.~.!.!.~.!.!.!.!.'.~.!.!.!.t n.m.b.@ # # # # # # # 3 b.m.m.m.m.m.m.n.x.x.v d a.J.!.!.'.~.!.~.~.~.'.~.~.",
"'.!.~.~.!.~.~.~.!.~.~.~.~.!.~.'.~.~.!.~.!.!.!.'.!.G . v.m.v.1 8 8 w @ @ $ # # z.m.m.m.m.m.m.m.v.x.i !.!.!.!.'.'.!.!.~.!.~.~.~.~.",
"!.!.!.~.~.!.!.!.!.~.~.!.!.!.!.!.!.!.~.!.~.~.~.~.U.$ $ m m.m.m.v.n j v.b.x.l 4 n.m.m.m.m.m.m.m.v.v <.!.~.!.~.~.'.~.~.^.~.!.!.~.!.",
"~.~.!.!.~.!.!.!.~.'.!.!.~.!.!.!.Q.'.~.~.'.~.!.~.Q.$ # l m.m.m.V ;X<X) v.m.m.n.m.m.m.m.m.m.m.m.v.5 I.~.~.!.!.~.!.~.!.!.'.!.~.!.!.",
"~.!.!.~.!.~.~.!.~.!.!.~.~.!.!.!.!.!.!.~.!.'.!.~._.$ # 9 m.m.N 5X8X8X5X) n.m.m.m.m.m.m.m.m.m.m.c.2 !.!.!.!.~.~.!.~.!.~.'.!.~.~.~.",
"!.!.'.~.~.!.~.~.!.!.!.!.~.!.!.~.!.~.!.~.~.~.!.~.~.. <X8.m.n.V.:X9X8X9XC.v.m.m.m.m.m.m.m.m.m.b.x.H ~.~.~.~.~.!.~.~.!.~.~.!.!.!.!.",
"!.~.'.!.~.'.!.!.!.~.!.~.~.!.~.!.!.~.'.!.!.!.!.~.~.G 1Xq.b.v.>X7X8X8X9X;Xz.m.m.m.m.m.m.m.m.m.b.x.X.~.'.!.!.!.!.!.!.!.~.!.!.!.!.~.",
"!.!.~.!.!.!.!.!.~.!.!.!.!.!.~.!.!.~.~.!.!.!.!.!.~.k.5X4Xx v.,X8X8X8X9X:Xx.m.m.m.m.m.m.m.m.m.v.v g.!.!.!.~.!.!.!.~.!.!.'.!.~.!.~.",
"!.!.!.!._.!.!.!.!.'.!.!.!.!.!.'.!.~.!.'.'.~.~.~.!.I.1X9Xw b.-X8X8X8X6X8.v.m.m.m.m.m.m.m.m.n.x.6 R.~.~.~.!.!.!.!.~.~.~.!.!.!.!.!.",
"!.~.'.'.~.~.~.~.~.!.~.!.^.!.!.~.!.~.!.~.!.~.!.!.!.~.7.6X#.m.( 6X8X9X<Xx b.m.m.m.m.m.m.m.m.b.x.p !.!.~.~.~.~.!.~.~._.~.~.!.~.~.~.",
"!.~.!.~.~.~.!.Q.!.!.'.!.!.'.!.!.!.'.~.!.~.!.~.!.!.!.R.l.@.n.b.#.1X;XV c.m.m.m.m.m.m.m.m.m.v.x.d !.~.!.~.~.~.!.~.~.!.~.^.!.'.!.!.",
"^.!.~.!.~.!.!.~.~.~.!.~.~.!.!.~.~.~.~.!.!.~.!.~.~.!.~.!.<.x.m.v.6 j z.n.m.m.m.m.m.m.m.m.n.x.z.} ~.!.!.~.~.~.~.!.~.~.~.!.!.!.~.!.",
"~.!.!.!.!.~.!.!.~.~.!.~.'.'.~.'.!.!.!.Q.!.'.~.!.~.!.!.!.R.< 0 0 c j m v.m.m.m.m.m.m.m.m.b.x.k <.!.~.!.~.~.~.!.!.!.~.~.~.~.!.'.'.",
"~.~.!.~.~.!.!.~.!.!.!.~.~.'.!.!.~.~.'.!.~.~.~.!.!.!.!.~.j.-.~.1.P.7.H.-.d l m.m.m.m.m.m.x.x.w K.!.!.!.~.~.!.!.~.~.!.~.~.!.~.!.~.",
"!.~.!.~.!.!.~.~.~.~.!.!.!.!.!.!.~.!.!.~.!.!.'.!.W.R.I.9.4Xl.i.9.o.= e.e.u., o x.m.n.m.b.x.x.a Q.~.!.!.!.!.!.~.!.!.~.~.!.~.!.!.!.",
"~.'.~.~.!.!.!.!.!.!.'._.~.!.~.~.!.!.!.!.!.~.~.~.-.2 8 8 s @ + @.<X- y.y.t.r.r.X m.b.b.x.x.x.H ~.~.!.!.~.~.!.~.~.!.~.!.~.!.!.^.!.",
"!.'.!.~.!.!.!.~.~.!.~.!.~.~.!.~.!.!.~.~.!.!.~.!.!.a m.m.m.m.m.b.v.m p > w.t.e.+ b.v.x.z.z.z.%.~.!.~.!.~.!.!.~.~.~.!.!.~.!.Q.!.!.",
"!.~.'.~.!.!.!.!.!.!.!.!.~.~.~.~.!.!.!.!.~.!.!.~.~.%.v.m.m.m.m.m.m.m.m.m.z.% = > b.x.k < O r f.~.!.!.~.!._.~.!.~.~.'.~.!.~.~.~.~.",
"!.~.!.!.!.!.!.~.~.!.!.~.~.!.~.!.!.!.!.!.!.~.!.!.!.R.q m.m.m.m.m.m.m.m.m.m.m.x.7 b.x.5 x.a !.~.!._.!.~.^.^.!.!.!.!.!.~.~.!.!.!.!.",
"!.!.'.!.!.!.!.!.'.!.~.'.~.!.'._.'.~.~.!.!.!.!.~.!.!.D b.m.m.m.m.m.m.m.m.m.m.m.b.v.x.6 z.a !.~.~.!.!.!.~.!.!.!.!.~.~.!.^.~.~.~.~.",
"~.~.~.!.~.!.!.'.!.~.~.!.!.~.~.!.!.!.~.!.!.!.!.!.!.!.K.x m.m.m.m.m.m.m.m.b.v.z.z.z.z.6 M 9 %.Q.!.~.!.!.~.!.!.~.^.!.!.!.!.~.~.!.~.",
"_.!.~.!.'.!.~.~.~.'.~.!.~.~.~.J.i s.~.!.!.!.~.~.!.!.!.f m.v.n 7 9 a d H &.%.%.%.2 k 5 3 ,.=.U.~.!.!.!.'.~.~.~.~.!.!.~.!.!.!.~.~.",
"~.~.!.~.!.~.~.!.!.~.!.~.!.~.I.w b.H ~.'.!.U.G J T $.=.T K d.Z.Z.Z.Z.d.,.=.$.T J i y X ).|.Z.K.~.~.!.~.~.~.!.!.!.~.!.!.!.^.~.~.!.",
"!.!.!.'.~.!.~.!.!.!.~.!.!.~.Q.8 b.l s.&.s n B =.2X2X2X2X2X2X2X2X2X2X2X2X2X2X2X2X2X2X(./.[.F.f.!.!.!.!.!.~.!.~.~.~._.~.!.~.'.~.~.",
"~.~.!.!.~.!.!.!.!.!.!.U.t H %.% v 5 6 b.m.m.m.0 }.2X2X2X2X2X2X2X2X2X2X2X2X2X3X{.`.Y.T |.].Y.s.~.!.!.!.!.!.!.!.~.~.~.~.~.!.~.~.~.",
"~.~.~.~.~.!.!.~.~.~.Q.H b.b.x.z.m b.m.m.m.m.x ..$.2X2X2X2X2X2X2X3X|.{.}.}.[.`.(.).`.=.{.].(.:.!.'.!.!.~.~.!.~._.~.!.!.!.'.!.'.~.",
"!.!.!.!._.~.~._.!.!.<.n n.0 % v m.n.b.m.m.v.K !.g.$.d.D.F.Y.`.].].].].].].].].(.d.=.d.[.].`.-.!.~.!.!.!.~.!.!.!.~.!.!.~.~.~.^.!.",
"!.!.~.!.!._.~.!.~.~.i j v %.% b.z.1 x.m.b.r W.~.Q.A ).].].].].].].].].].E.T *.S.[.2X3X].].].$.~.~.~.!.!.!.'.'.~.!.~.!.!.!.~.~.!.",
"~.~.!.!.~.~.~.!.!.'.!.g...Q.r b.2 J v m.z H.!.I.+ d.,.].].].].].`.D.=.T $.{.2X2X2X2X|.].].].$.!.~.~.!.!.!.~.~.~.!.!.!.!.!.!.~.~.",
"~.~.~.!.!.~.!.!.!.~.'.!.~.~.r b.q :.j m.g !.%.x v.c D E.].`.E.T T S.).S.).2X2X2X3X2X}.].].].*.Q._.!.Q.~.'.~.!.!.!.~.^.'.!.!.!.!.",
"~.!.'.!.!.~.'.!.~.~.~.!.!.~.r b.j ; 5 b.q ..M m.m.x J A T D d.(.].].].,.{.2X2X2X{.3X[.].].].*.U.!.~.~.~.!.!.!.!.~.'.~.~.Q.!.!.~.",
"!.!.~.'.!.~.!.~.!.!.~.!.!.~.A 2 o R O 6 v.< v.m.m.f !.J.& `.].].].].S.; 2X2X2X2X[.|.[.].].].p.g.~.!.~.~.!.!.~.~.!.!.!.!._.^.~.!.",
"!.~.!.!.~.!.!.~.!.~.!.~.!.~.~.W.g.;.t 1 1 5 x m.v.%.~.~.R.$.Y.].`.;.:.;.2X2X2X2X).}.].].].].D.:.'._.~.!.~.!.~._.!.~.~.!.!.~.!.~.",
"~.~.!.!.!.!.!.!.~.!.!.~.~.!.!.} z.v.v.b.n.b.b.m.j J.~.!.!.Q.X.F.T J.J.p.2X2X2X2XE.[.].].].].(.-.~.!.Q.!.!.!.!.!.!.~.~.!.~.~.!._.",
"'.!.!.~.!.!.~.!.!.~.!.!.~.!.!.C m.l & v.z.2 z.m.3 !.~.~.'.~.!.a.R.!.f.F.2X2X2X2XD.].].].].].].$.~.~.!.!.!.~.!.!.!.^.~.!.!.!.!.~.",
"!.~.^.~.^._.!.~.!.!.!.!.~.~.Q.l b.f ..b.l s.q b.7 K.!.~.'.~.!.~.~.!.:.).L [.2X|.Z.].].].].].].$.~.!.!.!.!.~.~.!.!.!.~.~.~.~.!.!.",
"!.!.!.^.~.!.~.~.~.~.!.~.'.!.I.t y %.J.v v.i K x.b.0 J W.^.~.!.!._.^.G ^ _ `.Y.~ W (.].`./.].].*.~.!.!.!.~.!.!.!.Q.!.!.!.!.!.~.!.",
"!.~.!.~.!.!.!.!.~.~.~.~.~.!.!.!.~.!.!.p b.x <.} a x y g.~.~.!.~.~.^.G `  X!  X&X$X .D.^ ' &./.,.R.!.!.!.!.~.~.!.!.!.~.~.!.~.!.!.",
"!.!.~.~.!.~.'.!.~.~.~.~.!.!.~.~.!.^.~.J 3 h g.!.!.U.R.'.!.!.!.!.~.!.W.^ %X&X&X&X&XXX` &X&X$X' F j.~.!.!.~.~.^.~.^.!.~.~.!.~.~.!.",
"~.!.!.!.!.~.~.^.!.!.!.!.!.!.'.~.!.~.~.Q.W.!.~.!.~.~.~.!.~.~.!.!.!.!.!.<. X%X&X&X&X&X@X&X&X$X_ X.J.~.!.!.!.~.!.!.!.!.~.~.'.!.!.~.",
"~._.~.~.~.~.~.!.~.~.~.!.!.~.!.!.Q.^.~._.~.~.~.'.!.!.'.!.!.~.!.!.!.!.~.!.| _ @X+X&X&X+X+X+X` ..~.~.!.!.!.~.!.!.~.~.~._.~.~.!.~.'.",
"~.~.!.!.~.!.!.!.~.~.!.!.~.~.!.~.!.~.~.!.~.~.~.!._.~.^.!.!.!.!.~.~.Q._.~.~.4.Q Q +X&X&X' ~ f.~.~.~.~.~.!._.~.!.!.!.!.!.~.~.~.~.~.",
"~.~.!.~.~.~.~.~.!.!.'.~.!.~.!.~.~.~.!.~.~.!.'.~.~.!.~.!._.!.'.'.~.~.~.'.W.oX&X+X X&X&X.XW.~.~.~.!.~.^.!.~.'.~.~.!.~.!.~.!.~.~.~.",
"~.!.~.!.!.!.~.!.'.!.!.!.!.!.!.!.!.!.~.~.!.~.!.!.!.~.!.!.~.!.!.~.!.!.!.!.0.%X&X+X@.#X&X%X8.'.~.Q.~.^.!.!.~.!.~.!.~.~.~.!.~.!.!.~.",
"!.!.~.~._.!.!.~.!.~.!.!.!.~.!.~.~.!.~.!.!.~.~.!.^.~.!.!.!.!.~.~.~.~.!.!.OX&X&XOXR.=X&X$XoXW.~.!.~.!.!.!.~.!.!.^.!.~.Q.!.~.~.!.!.",
"!.!.!.!.!.!.~.!.'.~.~.!._.!.~.!.~.!.~.~.!.~.~.~.!.!.~.!.!.~.!.~.!.~.!.G.*X&X%X8.!.T./ e @X5.!.!.~.~.~.~.!.!.!.~.!.'.!.!.'.!.!.~.",
"!.~.!.~.!.!.~.!.~.Q.~.~.!.'.~.~.~.!.!.!.~.!.!.!.!.!.~.~.!.!.!.!.~.~.Q.5.&X&X+XH.~.~.A.n +X+X0.!.!.!.!.'.!.!.!.!.!.!.!.~.~.!.!.~.",
"!.!.!.!.!.~.~.'.!.~.~.'.!.~.!.!.!.!.~.~.!.!.~.!.!.!.~.~.!.R.!.!.~.!.G..X_ +X.X!.'.~.~.[ &X&X+X5.Q.!.~.~.!.!.!.~.~.!.~.!.^.!.~.~.",
"~.~.!.!.!.Q.!.~.!.~.!.!.~.~.~.!.~.!.~.~.!.~.~.!.~.!.!.~.A.V H T.!.Q.@.k.{ !  .!.!.~.~.L.$X&X&X$X@.!.^.!.!.!.!.!.!.~.!.!._.!.~.!.",
"~.~.!.~.~.'.!.!.!.!.~.!.~.!.^.~.~.Q.!.!.~.!.!.'.!.'.!.Q.) V.m.( W.Q.!.2.z.2.X.!.!.~._.~.] ] /  .P f.~.!.~.'.!.!.!.!.!.!.~.~.~.!.",
"!.~.!.!.~.!.~.!.!.~.'.!.~.~.!.^.~.~.~.~.!.~.!.~.~.!.~.K.N.N.c.b.M.B.L.M.Z Q.U.!.R.>.E E Y U U I I S !.!.~.~.!.!.~.~.!.!.!.!.!.~.",
"!.~.!.~.!.!.~.~.!.~.~.!.~.!.~.'.~.~.~.!.~.!.!.~.!.!.!.!.U.R.+.x.v.b.x.b.C !.!.W.R Y U U U U I S >.U.!.^.'.~.!.!.!.!.~.!.!.!.~.~.",
"!.~.!.!.!.!.!.~.~.!.~.!.!.~.!.!._.~.!.!.!.~.~.!.!.!.~.!.!.!.!.K.2.+.( v.N R.!.j.P U U U , : :.R.~.!.!.!.~.~.~.~.!.~.~.~.!.!.~.'.",
"~.~.!.Q.~.!.~.!.'.'.!.~.~.~.!.!.~.~.!.!.!.~.!.!.~.!.!.~.!.!.!.~.!.!.R.+.O.R.~.j.P Y I : >.R.~.!.'.!.!.~.!.'.~.!.!.~.!.~.^.~.~.~.",
"~.'.!.!.~.~.~.!.~.!.!.~.!.!.!.Q.~.!.~.~.~.~.~.~.!.!.!.!.~.~.!.~.!.!._.!.!.!.~.W.S : :.!.!.!.!.!.!.!.~.~.~.!.!.~.!.!.!.~.'.~.'.~.",
"~.'.!.~.!.~.!.~.!.!.!.!.!.~.!.~.!.!.!.!.~.~.!.!.~.~.'.!.!.!.!.'.~.!.~._.~.!.!.!.U.!.!.~.!.!.~.~.~.~.!.!.!.!.~.~.!.!.~.!.!.!.~.!.",
"!.'.~.~.!.~.~.~.!.!.'.~.!.~.~.~.!.!.!.!._.!.!.!.~.!.!.!.~.~.~.!.!.!.!.!.!.!.!.~.!.~.~.!.~.!.!.!.~.!.!.!.!.~.~.!.~.~.~.~.~.!.!.!.",
"~.!.!.~.~.!.~.~.!.!.^.^.~.!.~.~.~.~.!.!.~.!.'.!.~.~.~.~.!.!.!.~.^.~.~.~.~.~.~.~.!.~.~.!.~.!.~.!.!.~.!.Q.!.!.!.~.~.~.~.!.'.~.!.~."
};
