/* XPM */
static char *_eecd8384c5a4495ccdc56269978b4edGZGgmjRDh0PRpLbV[] = {
/* columns rows colors chars-per-pixel */
"64 64 166 2 ",
"   c #3D2612",
".  c #3F2814",
"X  c #402713",
"o  c #432A14",
"O  c #492E16",
"+  c #452E1A",
"@  c #4A2F19",
"#  c #4D3117",
"$  c #47301C",
"%  c #4C311A",
"&  c #513317",
"*  c #54351A",
"=  c #58371B",
"-  c #57381C",
";  c #5C3B1D",
":  c #613E1F",
">  c #4D3521",
",  c #4F3823",
"<  c #513621",
"1  c #543A25",
"2  c #5E3D22",
"3  c #5D3E22",
"4  c #5D3E23",
"5  c #5F3F22",
"6  c #5D3C21",
"7  c #583D24",
"8  c #5C3D22",
"9  c #553D29",
"0  c #553E2A",
"q  c #593F28",
"w  c #603D20",
"e  c #603E20",
"r  c #613E20",
"t  c #613F20",
"y  c #603E21",
"u  c #623E20",
"i  c #633E20",
"p  c #623F20",
"a  c #633F20",
"s  c #623F21",
"d  c #633F21",
"f  c #643F21",
"g  c #623E20",
"h  c #63401F",
"j  c #65411F",
"k  c #64401F",
"l  c #5A4027",
"z  c #5F4126",
"x  c #5A4028",
"c  c #5D4128",
"v  c #5E4229",
"b  c #5B422C",
"n  c #5C4531",
"m  c #5E4935",
"M  c #624020",
"N  c #634020",
"B  c #634120",
"V  c #634021",
"C  c #634022",
"Z  c #644020",
"A  c #654020",
"S  c #644120",
"D  c #654120",
"F  c #644021",
"G  c #654021",
"H  c #644121",
"J  c #654121",
"K  c #664120",
"L  c #664121",
"P  c #674121",
"I  c #654220",
"U  c #654221",
"Y  c #664220",
"T  c #674220",
"R  c #674320",
"E  c #664221",
"W  c #674321",
"Q  c #654122",
"!  c #664122",
"~  c #654222",
"^  c #664222",
"/  c #674222",
"(  c #664322",
")  c #674322",
"_  c #674223",
"`  c #674323",
"'  c #674421",
"]  c #604025",
"[  c #654121",
"{  c #684120",
"}  c #684221",
"|  c #694221",
" . c #684321",
".. c #694321",
"X. c #6A4321",
"o. c #684222",
"O. c #694222",
"+. c #684322",
"@. c #694322",
"#. c #6A4322",
"$. c #6A4323",
"%. c #684421",
"&. c #694421",
"*. c #6A4421",
"=. c #684422",
"-. c #694422",
";. c #684423",
":. c #694423",
">. c #694523",
",. c #6A4422",
"<. c #6B4422",
"1. c #6A4522",
"2. c #6B4522",
"3. c #6A4423",
"4. c #6B4423",
"5. c #6A4523",
"6. c #6B4523",
"7. c #6B4623",
"8. c #6C4523",
"9. c #6C4622",
"0. c #6C4623",
"q. c #6D4623",
"w. c #6D4723",
"e. c #6E4623",
"r. c #6B4424",
"t. c #6A4524",
"y. c #6C4524",
"u. c #6D4524",
"i. c #6C4624",
"p. c #6D4624",
"a. c #6D4724",
"s. c #6D4625",
"d. c #6E4724",
"f. c #6F4724",
"g. c #6E4625",
"h. c #6E4725",
"j. c #6F4725",
"k. c #6A4422",
"l. c #6E4824",
"z. c #6F4824",
"x. c #6E4825",
"c. c #6F4925",
"v. c #6E4824",
"b. c #604329",
"n. c #61442B",
"m. c #644428",
"M. c #64452A",
"N. c #69472A",
"B. c #65492E",
"V. c #6A4A2D",
"C. c #704824",
"Z. c #704825",
"A. c #714925",
"S. c #714926",
"D. c #724926",
"F. c #744B27",
"G. c #764D27",
"H. c #704925",
"J. c #614730",
"K. c #614730",
"L. c #634A34",
"P. c #694D34",
"I. c #644D39",
"U. c #6B523C",
"Y. c #715033",
"T. c #6F5641",
/* pixels */
"=.=.=.=.=.y.=.=.Y Y @.Y Y =.=.=.=.=.=.=.Y =.@.=.=.y.y.y.y.y.y.l.y.y.G.F.l.l.0.0.0.0.=.Y Y =.=.=.=.=.Y N N Y Y Y Y Y Y Y Y =.@.=.",
"@.=.=.=.=.0.@.Y Y Y Y Y Y @.=.=.=.=.Y =.=.@.=.=.=.0.y.y.y.y.=.0.0.0.S.l.=.@.=.y.0.0.0.=.j j @.@.=.=.Y @.@.@.Y p Y Y Y Y =.=.@.@.",
"@.=.=.=.@.y.Y Y Y j Y j j Y Y Y =.@.=.=.=.Y =.=.r.y.y.r.=.=.y.y.l.S.0.=.@.@.@.Y @.=.0.y.=.Y j Y Y Y Y Y Y Y O % : Y Y Y =.@.@.@.",
"Y Y N N Y Y Y Y @.=.=.=.=.=.=.Y Y Y Y =.- * Y =.y.=.Y Y Y @.=.N : Y Y Y h Y Y : Y l.l.l.l.y.=.=.@.=.=.@.@.Y * X O p Y Y Y =.=.Y ",
"Y @.@.@.=.y.=.Y Y Y Y =.=.y.0.@.Y Y Y p % X = @.@.Y @.Y Y Y Y o X - Y Y Y Y =.=.Y =.0.0.y.y.l.y.=.=.=.y.y.S.N % X ; =.Y =.0.@.Y ",
"Y @.@.=.=.=.=.=.Y =.=.@.=.=.=.Y Y Y Y Y ; X o : Y Y Y Y Y N p ; + X ; Y Y Y Y @.=.Y Y Y Y ' =.0.=.Y Y Y Y Y =.; X * =.r.0.0.=.@.",
"Y Y Y Y Y p p Y j Y Y Y @.=.=.=.=.=.Y p ; # X - Y Y @.@.Y Y Y f - X O ; Y Y Y Y Y Y Y Y N Y =.=.0.@.@.f p N N ; + + p Y Y r.=.@.",
"@.=.=.Y - . & : Y j Y Y Y Y Y Y Y Y Y Y p = X < Y 0.l.S.y.=.Y Y ; % X & Y Y Y Y Y Y Y Y @.=.@.=.y.=.y.=.=.@.Y p % + 5 N Y =.Y Y ",
"Y Y Y Y ; % X # ; Y =.=.y.0.=.@.@.@.Y Y Y ; X < p Y @.=.=.Y Y Y Y ; o o ; Y @.Y Y Y Y Y =.=.; N =.=.=.@.0.S.S.0.; X ] =.=.=.Y Y ",
"Y Y Y Y Y 5 1 + X ; Y Y @.Y Y Y N Y p N N ; o % 5 : p p Y p Y Y Y : % X - ; : f N N p : : ; . 1 p : : p p : : p - X v Y Y Y Y Y ",
"N p : p p p 5 7 + X * ; p p : : : : ; : p ; + $ 5 : p p N : ; ; ; = # X + ; ; ; ; : : : ; % . K.; p : p : ; ; ; * X l ; : p p p ",
"Y p p p ; ; : ; 7 + X * : : : p : : : ; ; - X $ 6 ; ; ; - - - * * * % X o * - - = ; : : ; O + n.p p p p : : p : - X b : Y =.=.Y ",
"p : p : : N p : : 6 o o ; p p : p p ; ; ; * X > 7 ; ; - - - * & - - - O X O * - - ; : ; ; X > M.p : p p : : : ; * X v N Y =.Y : ",
"; ; p p p Y Y Y : : * X # Y Y Y Y Y p ; ; - . , 6 ; ; ; ; ; - - - - - & X o * - ; ; ; ; - . 0 5 ; ; ; : p : Y N * X b.N Y : ; ; ",
"; ; ; ; ; ; ; ; ; ; ; O X - N p p : : p : - . n ; ; ; = - - * & * * - - O X * = ; ; ; ; - . b ; ; ; ; ; : p : : % + b.p : ; ; ; ",
"; ; ; ; ; - - - - = = & X + ; ; ; ; ; ; ; O X K.- - - - - - & * - - - - # X % - - = ; ; * X 0 ; ; ; ; ; ; ; ; ; O $ 4 ; ; : : ; ",
"p : ; ; ; ; ; ; ; ; ; ; O X % ; ; ; ; ; - . 1 c - - - - - - * * - - = ; * X % - - - ; ; - . < ; ; ; ; ; ; ; ; = X > c ; ; ; : : ",
"p p ; ; ; ; ; ; : : : p ; X o - ; ; - - % . L.- - = = ; = - - - - = ; = * X $ * - - ; ; ; X > 5 p : p : : : : ; . n N ; ; : : : ",
"p Y Y : : p p Y j Y Y Y p % X & ; ; - * . $ v ; ; ; = - - - - - - - - - & X $ - - - - ; ; + + 5 : Y Y Y Y Y @.- . I.p h h N : p ",
"@.N : : p p p p : : Y Y Y ; X O : =.: * . L.N Y Y p : ; ; ; - - - - - - & X $ 7 & * - - * O o 7 Y Y Y @.@.=.Y + > V.Y Y Y Y =.=.",
"; ; ; ; ; ; ; ; ; ; p : p ; O + 5 S.Y + + P.=.l.=.Y p ; : ; - - - = ; - * X $ 7 - - - = = % X % ; ; ; ; ; : - . L.5 : ; ; ; p p ",
": p p N Y Y Y Y Y @.@.Y Y N - X 6 =.; . I.` Y =.: ; ; ; ; = - - - ; - - * . > 5 = ; = = ; - X + - ; ; - - - X + L.; ; ; ; ; : p ",
"Y Y Y Y Y Y Y Y Y @.Y Y Y Y ; X 7 ; X > P.N N N : ; ; ; = ; - * * - - - & . 0 ; - = = - - - + X & = = - - O   I.5 ; : p p p p N ",
": : ; ; : Y Y Y Y Y @.@.@.Y ; X 7 # . U.N Y Y : : ; ; ; = - - * & - - - % . n ; ; ; = = ; - % X + - - - %   0 P.; : : : : ; ; p ",
": : ; ; : : ; : : Y Y N N N - X 1 . b M.: h Y : : ; ; ; ; ; - & - - = ; # . K.; ; ; ; ; = ; - o X & ; & . $ U.Y : : j h ; ; p : ",
": : h Y @.@.N p : : : ; : ; - . + X I.; ; ; ; ; ; ; ; ; ; ; * & * - ; - . > v ; ; - - - = ; ; % X O % . $ T.;.Y Y @.Y p : : Y Y ",
"Y Y Y =.Y Y Y Y Y : p : ; ; % . . n ] ; ; ; = - - - - * & % % % * - - % . n - - ; - - - - = - - o X . 1 T.` Y j Y =.Y p Y Y =.Y ",
"Y Y Y Y Y Y Y j Y N p : ; ; + . $ P.- - ; ; ; = - - - - & & % % & - - . + K.* - * & - - - - - - & X $ L.5 ; ; ; : : ; p Y @.@.Y ",
": N Y N : : : ; ; ; ; ; ; - . X I.7 ; ; = ; = ; ; - - - - * & & & * %   I.- - - * & & * * - - = - O X % ; = ; ; ; ; ; ; ; ; ; : ",
"; ; ; ; ; ; ; ; ; ; ; ; ; & . , B.; ; ; = = - = - * & @ % % % % % +   > v * - - & & & & & & * - - # X X & - = ; = - ; ; ; ; ; ; ",
"p : : p : ; ; : : Y Y : ; * . L.5 ; ; ; ; ; ; ; = - & % % % O @ O   . I.* & * & & & % % & & * * = = # X O ; ; ; ; ; ; ; ; ; : p ",
"=.=.=.Y Y Y N N Y Y h : : O + P.Y Y Y : : ; ; ; = - * & - - & % X   I.7 & & & & & & & & * - = ; ; ; ; o X - Y : : Y Y Y Y Y @.=.",
"Y Y Y Y Y Y Y Y =.Y : : = . n ] : : N Y Y p : ; ; - * * - * & +   n q % & & # # & & & & * - ; ; ; ; ; & X + ; ; : : j Y Y Y Y Y ",
": : : : : : : : Y h : : # X P.: p : j h : p : ; - - * - * * #   > K.& & & & & & * - - = - - ; ; ; Y Y ; O X & : Y j Y Y Y @.j N ",
"Y Y : : : : j N : : : ; X 0 N.: : Y Y Y : : ; ; ; = - - * % . X I.* % % % # % # & & & = - = ; ; : Y : ; - X o ; : Y =.y.@.@.j Y ",
": : : : : : : : : p : - . I.p p p Y : : : : ; ; ; ; = - - O   + % * * & & # # & # * - ; = ; ; ; ; : : ; ; O X # ; ; ; : : : : : ",
": : j Y Y Y Y p p Y p o $ B.: f Y Y j Y : : : : ; ; ; ; - X X + o & * * & & * - - - - ; ; : : ; ; : : ; ; = X o ; p N N : : : : ",
"j j Y @.@.Y j Y Y Y ; . L.p : Y Y Y Y Y : ; ; : ; ; ; ; * . b # X O & & * & = - = ; ; : : : p ; ; p N : : ; & X & p Y Y N Y Y j ",
"Y Y 0.=.@.@.Y =.=.Y O + P.Y @.@.Y Y Y Y Y : : ; ; ; ; = O . n % X X & - - - = ; = - = ; ; ; ; ; ; : : p : : ; X o : @.@.Y Y Y =.",
"Y Y Y Y N Y Y Y Y ; . b m.Y @.@.@.Y p : Y : : ; = - - % . $ 7 # o X O - - * - = = - = ; ; ; ; ; : p Y : ; : : % X - Y j j j Y Y ",
"j j Y N N N Y : : & . L.p : : : : ; ; ; ; ; ; - & # % O   1 * # O X o & - = ; ; = = = ; ; ; ; Y Y =.@.: : : N ; X # p Y h h N Y ",
"Y j Y Y Y Y h : ; X > V.Y f p p ; ; ; ; ; ; ; - & % % O   b & & % o X + * - - - - - - ; = ; ; Y =.=.@.: ; : Y ; + + ; N : : h j ",
"h h Y Y j ; ; ; - . n N p p : ; ; ; p : : ; ; = - & & + . b # # % # X o # % & - ; ; ; : : : : j =.=.=.h : : Y : & X - p h h h h ",
": : Y Y : : : : & X L.Y Y : : p N Y N Y Y @.=.Y ; ; ; O X q & & & & X X % & # - ; ; : p p Y : : : Y =.=.Y Y @.Y ; X % N Y : : : ",
"h Y Y Y Y @.@.Y + $ V.@.Y Y Y =.@.Y @.r.y.y.0.=.Y Y ; X $ v = = = = # X % * * - ; ; : : p ; ; ; ; ; ; ; ; : : : ; X % p : p p p ",
": : : @.=.=.=.; . n r.Y Y Y =.=.Y Y Y Y @.=.=.Y : : * . > 5 = = = ; & X % - - - - = = ; ; ; ; ; ; ; ; ; ; ; ; ; ; o $ p : : p p ",
": Y @.0.0.=.Y % X P.: : Y =.@.Y Y Y Y Y p p f : : p - . 1 N ; ; ; ; - X + * - - - * - - - - = ; ; ; ; ; ; ; ; : ; + # 5 : p : : ",
"=.0.0.S.S.0.N X 0 N.=.0.l.l.l.0.=.@.Y =.@.Y Y : N h - . b : ; ; ; ; - O X * - - - ; - - - - = ; ; ; ; ; ; ; : : ; O + 4 : : j Y ",
"Y Y Y =.=.=.- . I.Y =.0.0.l.l.y.=.Y @.=.y.l.@.Y @.Y ; X b p ; ; ; ; * # . < & & = - - = - - = ; ; ; ; ; ; ; ; ; ; O + 4 ; : : p ",
": : h Y Y ; + $ B.p p : Y Y Y Y Y Y Y Y @.@.Y Y Y Y = X q ; - - - - - % . % # & - ; ; ; p 5 ; ; ; ; ; ; ; ; ; ; ; + $ c : : : : ",
": Y j Y Y ; X 1 ` p p p : j j j : : : : : : : N Y : ; X 7 ; - - - - - & X % * * ; ; ; ; p p ; ; ; : : p : : p p ; o % ] : : : p ",
": Y Y Y @.: X 0 Y N Y Y Y @.Y Y N : : Y Y : : Y Y Y ; X % ; - - ; ; ; - X $ ; ; : ; ; ; ; : ; ; ; ; ; ; ; ; : : ; X 0 ] : p p p ",
"Y Y @.=.0.: X b Y Y Y Y Y Y Y Y N h Y Y f p p Y Y Y : O + ; ; ; ; ; ; ; o $ 6 ; : : : : ; p : ; ; : : ; ; : : : - . K.N Y Y Y j ",
"p Y Y Y =.: X 0 Y Y @.@.Y Y Y @.@.Y Y Y Y p f Y Y N : % X - ; ; ; ; ; ; + # 6 ; ; : : ; ; ; ; ; ; ; p Y Y Y Y : # X L.Y p : p : ",
": p p p Y ; X < p p N Y Y Y Y Y Y p p p p p @.@.Y Y : - X + ; ; ; ; - * X # 7 ; ; : ; ; ; ; ; ; ; ; h Y Y Y Y ; . 0 M.j j p p : ",
": : N N j ; + + ; : ; ; ; : : p : p p p : : Y @.Y Y j ; + + - ; ; ; ; - X $ 4 ; ; : : : : : p : p Y Y Y Y Y N + X U.Y j N : p N ",
"Y Y Y @.Y : & X * : p : ; : : p : : : ; ; : : Y Y : ; ; * n ] ; ; ; p ; X 1 5 ; ; ; ; ; ; : : : p N p p : : - . n M.j j j Y Y Y ",
"Y Y Y Y =.=.; X + ; Y Y Y Y @.Y Y f Y p : p : ; ; ; = = = 6 = ; ; ; p ; . n p p p ; ; p p p p : : p : ; : ; . $ P.p N Y Y Y Y Y ",
"Y Y Y Y Y Y : % X % ; p p : : : : ; ; ; : N p ; ; ; ; ; ; ; ; = - ; p * . K.N Y p : ; ; : p p ; : ; ; ; ; + . U.p p p p N Y Y Y ",
"h h h j Y Y Y ; + X * ; : ; ; : ; 5 ; ; ; ; : : ; ; ; ; = = - - - ; ; X $ n.; ; ; ; ; ; - ; : ; : ; : ; # . L.b.; ; ; ; : p : : ",
": : : ; : p : ; * X o ; ; ; : p p : : : : : : ; ; ; ; : ; ; ; ; ; ; % . I.5 ; ; ; ; - = ; ; : ; ; ; ; +   0 P.; ; ; ; ; ; ; : : ",
": : : : : Y N p ; O X - : : N N N : N N Y : p : p N : p p : : : h : # m P.p : N : N Y Y Y Y @.Y Y p X . n U.N ; ; ; ; ; ; ; : : ",
"@.=.=.=.@.=.Y Y Y ; 7 P.p f Y j Y Y Y j Y Y N : N p p j N Y N Y Y Y m.V.Y Y Y Y Y Y =.=.=.r.l.l.=.Y n.U.Y.r.;.Y h p Y Y Y @.@.=.",
"S.l.l.l.S.S.S.0.0.0.r.l.y.y.l.0.y.0.=.=.=.0.0.0.=.=.Y =.=.=.=.=.Y =.y.=.=.=.=.=.=.y.l.y.y.y.y.y.0.0.r.r.0.y.0.0.0.y.y.0.0.l.l.S."
};
