/* XPM */
static char *daa0c179afb243c2f4e7c43c81c5db4c565DHyH2ib7aUFxq[] = {
/* columns rows colors chars-per-pixel */
"64 64 68 1 ",
"  c #B19872",
". c #B79D75",
"X c #B89E76",
"o c #B79D76",
"O c #B89F77",
"+ c #B99F77",
"@ c #B69C75",
"# c #B79E76",
"$ c #B69B75",
"% c #BA9F77",
"& c #B59C75",
"* c #B39A74",
"= c #B89D76",
"- c #B59B74",
"; c #B49A74",
": c #B69D76",
"> c #B69D75",
", c #B99E77",
"< c #BAA078",
"1 c #B59D75",
"2 c #B49B74",
"3 c #B89E77",
"4 c #B39A73",
"5 c #BBA078",
"6 c #BBA178",
"7 c #BCA078",
"8 c #B59C74",
"9 c #BAA077",
"0 c #B49B75",
"q c #B29872",
"w c #B99E76",
"e c #B79C75",
"r c #B59B75",
"t c #B79C76",
"y c #BA9F78",
"u c #B79E77",
"i c #BAA178",
"p c #B69C74",
"a c #B9A077",
"s c #B69B74",
"d c #BCA179",
"f c #B39973",
"g c #B89F76",
"h c #BBA179",
"j c #B49A73",
"k c #B69E75",
"l c #B99F78",
"z c #BCA079",
"x c #B29973",
"c c #B99F76",
"v c #BCA178",
"b c #BA9E77",
"n c #BB9F78",
"m c #B89D77",
"M c #B59A74",
"N c #B79E75",
"B c #BBA278",
"V c #B19771",
"C c #B69C76",
"Z c #B9A078",
"A c #BBA077",
"S c #B49C75",
"D c #B89C76",
"F c #B89D75",
"G c #BCA279",
"H c #BB9F77",
"J c #B39974",
"K c #B49B73",
/* pixels */
" .XoooOX+@.+#$%&*==+=o=X-;XX:%>+.,+=<@>1+2X+@@@#=%+X@34&+.@X>Xoo",
"@233=56>@%#@%oo=@,>o%3.=+#&>X%+&+7o>3,>2%,@+3o@@o8oo.X@o,@4o9@@#",
"=@+,,+3,,+>#o-+o>o0#>22o+&3o-qw.,X@oo&+2=2e9oor++:XtX@3o:o+X2o&>",
"+=+o5#o.+=X=r@--.y,@=X#o2,+@$@5-&32+.X<+@o=oX>>.,.5ou93o+@2X@+8&",
"iXo@+Xp665eO#Xo+o+,a3++@$++o@>o#+%2oX+%X#ow@-X8@X#@o@+e#@-oX&+4@",
"5X@X3-#s@XX@X,XOXdX@+X@>+@XX@f8=pwXo3wX3+XgOXoOod&+%@X.%,oo#oX5=",
">3>Xy@X,:o@.o3@>+#;ooh+o&.+@>a=++X=oX@jo>@o.+Xr>X>>X=@&5=o+XX6=+",
"6>w,.=3%-X,X=@+63X@X>@od+8@X>>o.992#3>.Xj4@o3oo=e%Xoo><5#&Xk+X33",
"@.-%X.o.@+Xo@o>&&.=.+=3+2o2X3@&83<=3.36+#Xo,@@38o,oX>,%53Olwt8X&",
"==.o%oo-+z@@X@o;x<3X<=.,=@@X@@o@2;,OX>+&=3#Xc>y+o+X=->3oO@#6@+.o",
"%.rXrX3#,&8X+>o.&->X@vo,9.3@poo+5X.<+xjo>@23X>@X%:#@oXX&b&+5oX3+",
"@t<++.wOoo@#=>o%.weX+Or3Xoo+X@+3+o.*X@2r-<#3+oX#%=cXX,.g%1+,.oe#",
"&=5oXiooo+#,X@+..X<@2ooO=&XvoOXX,.;@X23g+o>@X@5+3=<@o@>8&@,#.@>=",
"#.X#@;@o+o-@&#+@o,go.@>-,Xa>o2-%;XX.X.oXX<+o;8,&&&ooX$>o+@><o,o3",
"o@@@9o@oo<-r:@o5#X@<5,oX@%#&o&Xy9&%3e@g=3,%&@-.yXXX3.@oo++%o@op2",
">X56=++X,#X@y.>+.,.+.oo@j+5X%-w,oooo@2&9y#=&:c+3eoXX+Xo=+aX,#X++",
"#X@XX3@4&#<@o<or$<+>Xo3.->X,+%,;XX+Xoo&xoX-&.X3e@,#X+=>XX.,y@<@;",
"noX-=o:==+oXX8@X%++.>+-g3@+,+o3&,>#>>oo=+.+:@X+-+ooXXwX@,X32&oXo",
"w.o8oX.-,XoX<5X6@0o @6%2X*o8t#.=X==X@@ofXo>-#%@@o%sXX=@#@,X+w#5<",
"XX@X=>@Xo8#,+<-&mX<rXX=.&@oXX3X:-@=>#%-=.=XoX-&#o@.XXo@XXow%>X>X",
"rb&X#om,+X@#>>&.+o.+@odo&@&Xr@3@o=Me+#3<o2@-XX&XX-o#o#X-oXX#+#>2",
"=<X+o>e:@;<a+@3Xo@#@@+=%>Xgoloo-r.o-@:++&#+#X>8wXo@g3@,+-X@,##y&",
"o5@,o->+X>g#=Oo=>@,+#o+oow>>,ro:8Xo.j@%o+%X+-=X%>3oX.&Xwm@.Xo4@o",
">+dXo.o#@-;.=X++r2&@Xo@XX@o,+oo++,p=%o%,-o<,o+oX>@Xo9=oX+hX-X3X+",
":=>@o@-X+s#+%o3@--o>o+>.23o@3-,o@oX@-%+@+oo#o-+o9.+yy>#.N@,+.o@o",
">od>&oe@<$X5X#Ba<,%.o@oX>#$o@=,++@X&V+,#oXoo:#,%o8o=8.oj%Xry,w,X",
",,+&+>#<.,=o@+=o3=,;.eC-@-X%w>XX<X+:,,@,o@oo3+#@=o2X&#Xl>e@.3=ow",
"9o+-<@XO=5%o+,wo3&w#o.+Xo@&X=o@><Xoo+X2%XXX.O2o+o&@5,wO=-o+o-@=O",
"+=@+o=+r-X2+@=3+6X5<#,-=8#=X@,#,p;;@=yyo9&23u3+XX:3++&>-Xo&oy==#",
"-@@<+o+o@8+@XXo,8X-@@@#o.,:O..+@5&+<.o-.+oo<#X->.2r&+oX3X93o,<+=",
"+X&oX;8>@.-#e5oX@oo=r@+t##ooX+2#+o@5>XX<.+Z+o5#+22@@ooo3++X+@w+,",
"+X,X+@rXXO.X>w.+#:3o.,XwAo3&t+@#+@+#+>r+d@o.@#:.do>++o+a=.o@5><+",
"@;oo9339or#@X+on..X3o,c@X2.X.=o59o+.#o-,*o+d,,@ow@@>3@:-3&o=X3y@",
"e2+@-9X.3=c##doO=oooX@o++->,:yX5roe>3So#,=3@.##,w=2o#<6+@3tt.,,@",
"+=o@O,X-e<@,8XX+#>X.#2o@#@X>+%+2,%#.oo&o=XX+oXr@X3o#ow+X;&o8$@X+",
"XXX@oXo@o,6@==+@2-&@@r3Coo%%+-@-o@>1+o=%@@35@@X5A.f,5+88&=yd2@@@",
",o<..35>XX+@@Xo3X+o@&,<oD..6aeo>r++Xr9+#:,=5+o>%-+XXore-X73Xf@eb",
":-X<eXo+>@Xe>X33$5oX-X.Oe,.Xoo>X-.oo-++.o>oXC,>rX.X,@o,=@o@@9y3>",
">,##XooX&,$=rX+%;%@o3X,%-o+X.9OXy,>-rX2ooX-eMo@469Xo,>+9@XX>@,o+",
",=@@@@2#+;-+=>o@=@5@&@FXyXX2oo+@#rx3XX,o=@r+:Xo@X#4oo>oo#+wrO%S9",
"5ooX@@3#.=@o+.oX.p+w+.-Xo==+<X+oO@Co3j2X.<X@X++4+,@.o+oooy=#2$>,",
":=y=ya@X;>-o=+->&.85,@oX@X@X<=eX=@@=+oo<@,>#6,oXX#.o;,O@#-,XO+:@",
"ot.y,#X3=+8X<oo>=-:5oX.2@.ooy+>&9,oo,o5+,wl33Xx+,228,:o&4>$>pC+o",
"@X#X:r@@XX,3X2@oX@-&%>o%o#X,=X@%X+%O@4;X<#;@>3,#92@.>O%>.-=X&g@.",
"@oX+#+<&+w3c>@X3-lX=X.oo#+.5o-2@X>==X@#+@3%@X+X@%=@@+%y=y>X,@,3j",
"+er&.XXyoo:.@o5O@=,O32X&+3+o+X2&2@o@ro+X,XwX@3#o>3&&-X@o::w+6r>+",
"XaX=%X3oXX3##3o>4y,9+X=<r2<oo=r@o@=X+>+.&X&9a@O%=2#>3>.X+XAX+@X<",
"+3@8+.&@wX@@+=#,.+X@+X329+y-&-o++fa%,+ooX@@8.+X%3X=o9X@:8@8X,ww%",
"+=o+3,,+@o5+-+#X3+;,,.<%+t=#9>563OX5XXX>@,3@X%=Xo%yo+<O%@%o+oOX+",
"+>g#@23o5@>.po.;@@XX.Xo:-%2-=#:%;:&>3XX+X@yX>iX4<5#o%.=>X+%-3@-+",
"&o+=a&@X#+$-@c@33-+..=X-y+.-$o++,X-oX<6X@&%+&+X&Xo2oX@oyo,4o%+@@",
"o-&@@&+#G+X2a#3o=@+Xo=%OooX.sX2+:X.-5o6%oX<,8.@o=XwXoooXo<.o5##X",
"oF2+@o=&X4+=>53X+&@.%@8$o@+,->;#,X2==o8oX,o&,.oO##.6@8o-@oo,+oo+",
"oo.o#+X6@X,5o,#2o2%X#;+;8>+X$@&.XC%+oooo5XX3@&#+X#O%t.&+XeOol2+X",
"X+.:o4o,o3o#OX3owoX,oOX*+#>X,w:lo>:9@.-@o,O.ooX@3-l>N-o#oX>#a@+#",
"+,o=+5ooo:X@X#l=Xfoo=..v><o+rey.&8@o>no2rX<%@X=<33X@=<.>oo@@+33$",
"p=@&X#XM#X<&%+;y=X3O.+#3Xo==O:X<&XXoCo>&&:@,X&,a+e.oX=-&33o#o>o3",
".X&woo,XoXHoX&+5X=3oX.o+->;#.X#@ory@jo@r@#o@X,+=+@oyh3.&8-Xe&#X+",
"e%o&>&2=X@X.>=;o9=.@:+X@>-X@;rXe#@5@w>&@r@:&+<&X+8:o=%X+>%%3@@+<",
"X+#f+oXo5<@XXX-oX3#-@+.oX@#X--.=>o5o<@X:3-+O,<X@<@#XJ<X&#XoXlX+,",
"X5@#=XX-+e#+o@& X.++X%XX@$:o,+#=>&+8o#X++X&Xo2o.#e%+Xo@O@2o+5%<X",
"X6&w>+2+>&o@&+#wo#2-+=@K3O6&>->dX:3++.o--+-=&r+=+O&>&#,+.>Xo@o%&",
"r5+Or=X+#:G,@+%go@.&9#.#+o@@+%Xo@ee>&@2+2++.=o->X&e@@+%&X,X3,@.@",
"X@>X3egX#-yl=t+++=o.Xo5o%++X@@-XyX+XX+w+.,,oX;Xr-Xe4#o.=,+,@<+t="
};
